<?xml version="1.0" encoding="utf-8" standalone="no"?>
<!DOCTYPE svg PUBLIC "-//W3C//DTD SVG 1.1//EN" "http://www.w3.org/Graphics/SVG/1.1/DTD/svg11.dtd">
<svg width="3000px" height="3000px" version="1.1" xmlns="http://www.w3.org/2000/svg" xmlns:xlink="http://www.w3.org/1999/xlink">
<g id="bg">
<rect x="0" y="0" width="3000px" height="3000px" style="fill:rgb(255,255,255);"/>
</g>
<g id="ideograms">
<path d="M1500.000,950.000 A550.000,550.000 40.000 0,1 1656.403,2027.293 L1713.277,2219.036 A750.000,750.000 0.000 0,0 1500.000,750.000 Z" style="stroke-width:2.0;stroke:rgb(0,0,0);stroke-linecap:round;fill:rgb(179,177,178);" />
<text x="2464.9" y="1359.9" font-size="46.8px" font-family="CMUBright-Roman" style="text-anchor:middle;fill:rgb(0,0,0);" transform="rotate(441.7,2464.9,1359.9)" >OZ2100<tspan baseline-shift="-40%" font-size="90%">3</tspan>5</text>
<line x1='1560.0' y1='752.4' x2='1561.0' y2='740.4' style="stroke-width:8.0;stroke:rgb(150,150,150);stroke-linecap:round;fill:none;" />
<text x="1575.9" y="729.7" font-size="41.6px" font-family="CMUBright-Roman" style="text-anchor:start;fill:rgb(150,150,150);" transform="rotate(274.6,1575.9,729.7)" >250 kb</text>
<line x1='1657.1' y1='766.6' x2='1659.6' y2='754.9' style="stroke-width:8.0;stroke:rgb(150,150,150);stroke-linecap:round;fill:none;" />
<line x1='1751.5' y1='793.4' x2='1755.6' y2='782.1' style="stroke-width:8.0;stroke:rgb(150,150,150);stroke-linecap:round;fill:none;" />
<line x1='1841.6' y1='832.3' x2='1847.1' y2='821.6' style="stroke-width:8.0;stroke:rgb(150,150,150);stroke-linecap:round;fill:none;" />
<line x1='1925.9' y1='882.6' x2='1932.7' y2='872.8' style="stroke-width:8.0;stroke:rgb(150,150,150);stroke-linecap:round;fill:none;" />
<line x1='2002.8' y1='943.5' x2='2010.9' y2='934.6' style="stroke-width:8.0;stroke:rgb(150,150,150);stroke-linecap:round;fill:none;" />
<text x="2029.2" y="935.2" font-size="41.6px" font-family="CMUBright-Roman" style="text-anchor:start;fill:rgb(150,150,150);" transform="rotate(312.1,2029.2,935.2)" >300 kb</text>
<line x1='2071.2' y1='1014.0' x2='2080.3' y2='1006.2' style="stroke-width:8.0;stroke:rgb(150,150,150);stroke-linecap:round;fill:none;" />
<line x1='2129.8' y1='1092.7' x2='2139.8' y2='1086.2' style="stroke-width:8.0;stroke:rgb(150,150,150);stroke-linecap:round;fill:none;" />
<line x1='2177.5' y1='1178.4' x2='2188.4' y2='1173.3' style="stroke-width:8.0;stroke:rgb(150,150,150);stroke-linecap:round;fill:none;" />
<line x1='2213.7' y1='1269.6' x2='2225.2' y2='1265.9' style="stroke-width:8.0;stroke:rgb(150,150,150);stroke-linecap:round;fill:none;" />
<line x1='2237.7' y1='1364.8' x2='2249.5' y2='1362.6' style="stroke-width:8.0;stroke:rgb(150,150,150);stroke-linecap:round;fill:none;" />
<text x="2263.7" y="1374.2" font-size="41.6px" font-family="CMUBright-Roman" style="text-anchor:start;fill:rgb(150,150,150);" transform="rotate(349.6,2263.7,1374.2)" >350 kb</text>
<line x1='2249.0' y1='1462.2' x2='2261.0' y2='1461.6' style="stroke-width:8.0;stroke:rgb(150,150,150);stroke-linecap:round;fill:none;" />
<line x1='2247.6' y1='1560.4' x2='2259.5' y2='1561.3' style="stroke-width:8.0;stroke:rgb(150,150,150);stroke-linecap:round;fill:none;" />
<line x1='2233.3' y1='1657.5' x2='2245.0' y2='1660.0' style="stroke-width:8.0;stroke:rgb(150,150,150);stroke-linecap:round;fill:none;" />
<line x1='2206.5' y1='1751.8' x2='2217.8' y2='1755.9' style="stroke-width:8.0;stroke:rgb(150,150,150);stroke-linecap:round;fill:none;" />
<line x1='2167.5' y1='1841.9' x2='2178.2' y2='1847.4' style="stroke-width:8.0;stroke:rgb(150,150,150);stroke-linecap:round;fill:none;" />
<text x="2182.4" y="1865.3" font-size="41.6px" font-family="CMUBright-Roman" style="text-anchor:start;fill:rgb(150,150,150);" transform="rotate(27.1,2182.4,1865.3)" >400 kb</text>
<line x1='2117.2' y1='1926.2' x2='2127.0' y2='1933.0' style="stroke-width:8.0;stroke:rgb(150,150,150);stroke-linecap:round;fill:none;" />
<line x1='2056.2' y1='2003.1' x2='2065.1' y2='2011.1' style="stroke-width:8.0;stroke:rgb(150,150,150);stroke-linecap:round;fill:none;" />
<line x1='1985.8' y1='2071.4' x2='1993.6' y2='2080.5' style="stroke-width:8.0;stroke:rgb(150,150,150);stroke-linecap:round;fill:none;" />
<line x1='1907.0' y1='2129.9' x2='1913.5' y2='2140.0' style="stroke-width:8.0;stroke:rgb(150,150,150);stroke-linecap:round;fill:none;" />
<line x1='1821.3' y1='2177.7' x2='1826.4' y2='2188.5' style="stroke-width:8.0;stroke:rgb(150,150,150);stroke-linecap:round;fill:none;" />
<text x="1818.9" y="2205.3" font-size="41.6px" font-family="CMUBright-Roman" style="text-anchor:start;fill:rgb(150,150,150);" transform="rotate(64.6,1818.9,2205.3)" >450 kb</text>
<line x1='1730.1' y1='2213.8' x2='1733.8' y2='2225.3' style="stroke-width:8.0;stroke:rgb(150,150,150);stroke-linecap:round;fill:none;" />
<g id="highlighttrack_0">
<path d="M2031.312,1357.847 A550.000,550.000 40.000 0,1 2049.801,1485.195 L2249.728,1479.812 A750.000,750.000 0.000 0,0 2224.516,1306.154 Z" style="stroke-width:14.0;stroke:rgb(0,0,0);stroke-linecap:round;fill:rgb(255,38,78);" />
</g>
<path d="M1500.000,950.000 A550.000,550.000 40.000 0,1 1656.403,2027.293 L1713.277,2219.036 A750.000,750.000 0.000 0,0 1500.000,750.000 Z" style="stroke-width:2.0;stroke:rgb(0,0,0);stroke-linecap:round;fill:none;" />
<path d="M1442.651,2047.002 A550.000,550.000 40.000 0,1 1289.468,991.890 L1212.910,807.122 A750.000,750.000 0.000 0,0 1421.796,2245.912 Z" style="stroke-width:2.0;stroke:rgb(0,0,0);stroke-linecap:round;fill:rgb(179,177,178);" />
<text x="491.6" y="1646.4" font-size="46.8px" font-family="CMUBright-Roman" style="text-anchor:middle;fill:rgb(0,0,0);" transform="rotate(81.7,491.6,1646.4)" >scaffold<tspan baseline-shift="-40%" font-size="90%">4</tspan></text>
<line x1='1383.6' y1='2240.9' x2='1381.7' y2='2252.8' style="stroke-width:8.0;stroke:rgb(150,150,150);stroke-linecap:round;fill:none;" />
<line x1='1287.8' y1='2219.4' x2='1284.4' y2='2230.9' style="stroke-width:8.0;stroke:rgb(150,150,150);stroke-linecap:round;fill:none;" />
<line x1='1195.7' y1='2185.5' x2='1190.9' y2='2196.5' style="stroke-width:8.0;stroke:rgb(150,150,150);stroke-linecap:round;fill:none;" />
<line x1='1108.8' y1='2139.9' x2='1102.6' y2='2150.1' style="stroke-width:8.0;stroke:rgb(150,150,150);stroke-linecap:round;fill:none;" />
<line x1='1028.6' y1='2083.4' x2='1021.1' y2='2092.7' style="stroke-width:8.0;stroke:rgb(150,150,150);stroke-linecap:round;fill:none;" />
<text x="1024.5" y="2110.7" font-size="41.6px" font-family="CMUBright-Roman" style="text-anchor:end;fill:rgb(150,150,150);" transform="rotate(-51.1,1024.5,2110.7)" >1050 kb</text>
<line x1='956.5' y1='2016.8' x2='947.8' y2='2025.1' style="stroke-width:8.0;stroke:rgb(150,150,150);stroke-linecap:round;fill:none;" />
<line x1='893.7' y1='1941.4' x2='884.0' y2='1948.5' style="stroke-width:8.0;stroke:rgb(150,150,150);stroke-linecap:round;fill:none;" />
<line x1='841.2' y1='1858.5' x2='830.7' y2='1864.2' style="stroke-width:8.0;stroke:rgb(150,150,150);stroke-linecap:round;fill:none;" />
<line x1='800.1' y1='1769.4' x2='788.9' y2='1773.7' style="stroke-width:8.0;stroke:rgb(150,150,150);stroke-linecap:round;fill:none;" />
<line x1='770.9' y1='1675.7' x2='759.2' y2='1678.5' style="stroke-width:8.0;stroke:rgb(150,150,150);stroke-linecap:round;fill:none;" />
<text x="750.9" y="1694.9" font-size="41.6px" font-family="CMUBright-Roman" style="text-anchor:end;fill:rgb(150,150,150);" transform="rotate(-13.6,750.9,1694.9)" >1100 kb</text>
<line x1='754.2' y1='1579.0' x2='742.2' y2='1580.3' style="stroke-width:8.0;stroke:rgb(150,150,150);stroke-linecap:round;fill:none;" />
<line x1='750.2' y1='1481.0' x2='738.2' y2='1480.7' style="stroke-width:8.0;stroke:rgb(150,150,150);stroke-linecap:round;fill:none;" />
<line x1='759.1' y1='1383.2' x2='747.3' y2='1381.4' style="stroke-width:8.0;stroke:rgb(150,150,150);stroke-linecap:round;fill:none;" />
<line x1='780.7' y1='1287.5' x2='769.2' y2='1284.1' style="stroke-width:8.0;stroke:rgb(150,150,150);stroke-linecap:round;fill:none;" />
<line x1='814.6' y1='1195.4' x2='803.7' y2='1190.5' style="stroke-width:8.0;stroke:rgb(150,150,150);stroke-linecap:round;fill:none;" />
<text x="787.1" y="1198.5" font-size="41.6px" font-family="CMUBright-Roman" style="text-anchor:end;fill:rgb(150,150,150);" transform="rotate(24.0,787.1,1198.5)" >1150 kb</text>
<line x1='860.3' y1='1108.5' x2='850.0' y2='1102.3' style="stroke-width:8.0;stroke:rgb(150,150,150);stroke-linecap:round;fill:none;" />
<line x1='916.8' y1='1028.4' x2='907.5' y2='1020.8' style="stroke-width:8.0;stroke:rgb(150,150,150);stroke-linecap:round;fill:none;" />
<line x1='983.4' y1='956.3' x2='975.2' y2='947.6' style="stroke-width:8.0;stroke:rgb(150,150,150);stroke-linecap:round;fill:none;" />
<line x1='1058.8' y1='893.5' x2='1051.8' y2='883.8' style="stroke-width:8.0;stroke:rgb(150,150,150);stroke-linecap:round;fill:none;" />
<line x1='1141.8' y1='841.1' x2='1136.1' y2='830.5' style="stroke-width:8.0;stroke:rgb(150,150,150);stroke-linecap:round;fill:none;" />
<text x="1118.1" y="826.8" font-size="41.6px" font-family="CMUBright-Roman" style="text-anchor:end;fill:rgb(150,150,150);" transform="rotate(61.5,1118.1,826.8)" >1200 kb</text>
<path d="M1442.651,2047.002 A550.000,550.000 40.000 0,1 1289.468,991.890 L1212.910,807.122 A750.000,750.000 0.000 0,0 1421.796,2245.912 Z" style="stroke-width:2.0;stroke:rgb(0,0,0);stroke-linecap:round;fill:none;" />
</g>
<g id="track_0">
<path d="M 1500.000,977.500 A 522.500,522.500 0.00 0,1 2004.7,1365.0 L 2004.7,1365.0 1979.2,1371.7 1953.7,1378.5 1928.0,1385.2 1902.3,1391.8 1876.5,1398.3 1850.7,1404.8 1824.7,1411.2 1798.8,1417.6 1772.7,1423.8 1746.7,1430.0 1720.5,1436.1 1694.4,1442.1 1668.1,1448.0 1641.9,1453.9 1615.6,1459.6 1589.3,1465.2 1562.9,1470.8 1536.5,1476.3 1510.1,1481.6 1483.6,1486.9 1457.2,1492.0 1430.7,1497.1 1404.2,1502.1 1377.8,1506.9 1351.3,1511.7 1324.8,1516.4 1298.3,1520.9 1271.8,1525.4 1245.3,1529.8 1218.9,1534.0 1192.4,1538.2 1166.0,1542.3 1139.6,1546.3 1113.2,1550.2 1086.9,1554.0 1060.6,1557.7 1034.4,1561.4 1008.2,1565.0 982.0,1568.4  A 522.500,522.500 0.00 0,1 1300.0,1017.3 L 1300.0,1017.3 1307.8,1035.9 1315.8,1054.4 1323.9,1072.4 1332.1,1090.1 1340.3,1107.1 1348.5,1123.4 1356.7,1139.0 1364.9,1153.6 1372.9,1167.2 1380.9,1179.7 1388.7,1191.1 1396.4,1201.2 1403.9,1210.1 1411.2,1217.6 1418.3,1223.8 1425.1,1228.5 1431.7,1231.8 1438.0,1233.6 1444.1,1234.0 1449.8,1232.8 1455.3,1230.2 1460.4,1226.1 1465.3,1220.5 1469.8,1213.5 1474.0,1205.2 1477.8,1195.4 1481.4,1184.3 1484.6,1172.0 1487.4,1158.5 1490.0,1143.9 1492.2,1128.2 1494.2,1111.6 1495.8,1094.1 1497.2,1075.9 1498.2,1057.0 1499.0,1037.6 1499.6,1017.8 1499.9,997.7 1500.0,977.5  Z" style="stroke-width: 0.5;  stroke: rgb(0,0,0); fill: rgb(179,177,178);" />
<path d="M 2021.881,1525.433 A 522.500,522.500 0.00 0,1 1749.1,1959.3 L 1749.1,1959.3 1739.0,1941.3 1728.7,1923.4 1718.0,1906.0 1707.1,1889.0 1695.9,1872.6 1684.6,1856.9 1673.0,1842.1 1661.3,1828.1 1649.4,1815.0 1637.4,1803.1 1625.4,1792.2 1613.3,1782.5 1601.1,1774.0 1589.0,1766.8 1576.9,1761.0 1564.8,1756.4 1552.7,1753.3 1540.8,1751.6 1528.9,1751.2 1517.2,1752.3 1505.6,1754.8 1494.1,1758.7 1482.9,1763.9 1471.8,1770.6 1460.9,1778.6 1450.3,1787.8 1439.9,1798.4 1429.8,1810.1 1419.9,1823.0 1410.3,1836.9 1401.0,1851.9 1392.0,1867.8 1383.3,1884.5 1375.0,1902.0 1367.0,1920.1 1359.3,1938.8 1352.0,1957.9 1345.1,1977.3 1338.5,1996.9  A 522.500,522.500 0.00 0,1 991.5,1620.1 L 991.5,1620.1 1016.7,1614.2 1042.1,1608.5 1067.7,1602.8 1093.3,1597.3 1119.1,1592.0 1145.0,1586.8 1171.0,1581.7 1197.2,1576.9 1223.4,1572.2 1249.7,1567.7 1276.1,1563.3 1302.6,1559.2 1329.2,1555.3 1355.8,1551.6 1382.5,1548.0 1409.3,1544.7 1436.1,1541.6 1462.9,1538.7 1489.8,1536.0 1516.6,1533.5 1543.5,1531.3 1570.4,1529.2 1597.3,1527.4 1624.3,1525.8 1651.1,1524.4 1678.0,1523.2 1704.8,1522.3 1731.6,1521.5 1758.4,1520.9 1785.1,1520.6 1811.8,1520.4 1838.3,1520.4 1864.9,1520.6 1891.3,1521.0 1917.6,1521.6 1943.8,1522.3 1970.0,1523.2 1996.0,1524.2 2021.9,1525.4  Z" style="stroke-width: 0.5;  stroke: rgb(0,0,0); fill: rgb(179,177,178);" />
<path d="M 2022.311,1485.936 A 522.500,522.500 0.00 0,1 2021.9,1524.8 L 2021.9,1524.8 1996.0,1523.7 1970.0,1522.6 1943.9,1521.8 1917.6,1521.1 1891.3,1520.5 1864.9,1520.2 1838.4,1520.0 1811.8,1520.0 1785.1,1520.2 1758.4,1520.6 1731.7,1521.2 1704.8,1522.0 1678.0,1523.0 1651.1,1524.2 1624.3,1525.6 1597.4,1527.2 1570.4,1529.1 1543.5,1531.1 1516.6,1533.4 1489.8,1535.9 1462.9,1538.6 1436.1,1541.5 1409.3,1544.6 1382.5,1547.9 1355.9,1551.5 1329.2,1555.2 1302.7,1559.2 1276.2,1563.3 1249.7,1567.6 1223.4,1572.1 1197.2,1576.8 1171.1,1581.7 1145.0,1586.8 1119.1,1592.0 1093.3,1597.3 1067.7,1602.8 1042.1,1608.5 1016.7,1614.2 991.5,1620.1  A 522.500,522.500 0.00 0,1 983.9,1581.7 L 983.9,1581.7 1010.0,1577.6 1036.1,1573.6 1062.3,1569.6 1088.6,1565.7 1114.9,1561.9 1141.3,1558.1 1167.8,1554.4 1194.3,1550.8 1220.8,1547.3 1247.4,1543.9 1274.0,1540.6 1300.7,1537.3 1327.4,1534.2 1354.1,1531.1 1380.8,1528.1 1407.6,1525.3 1434.4,1522.5 1461.2,1519.8 1488.1,1517.2 1514.9,1514.8 1541.7,1512.4 1568.6,1510.1 1595.5,1507.9 1622.3,1505.9 1649.1,1503.9 1676.0,1502.0 1702.8,1500.2 1729.6,1498.6 1756.4,1497.0 1783.2,1495.5 1809.9,1494.1 1836.6,1492.8 1863.3,1491.5 1889.9,1490.4 1916.5,1489.4 1943.0,1488.4 1969.5,1487.5 1995.9,1486.7 2022.3,1485.9  Z" style="stroke-width: 0.5;  stroke: rgb(0,0,0); fill: rgb(179,177,178);" />
</g>
<g id="plot0">
<g id="plot0-axis">
</g>
<line x1='2244.2' y1='1593.2' x2='2244.2' y2='1593.2' style="stroke-width:14.0;stroke:rgb(0,0,0);stroke-linecap:round;fill:none;" />
<line x1='2244.2' y1='1593.2' x2='2283.9' y2='1598.1' style="stroke-width:14.0;stroke:rgb(0,0,0);stroke-linecap:round;fill:none;" />
<line x1='2283.9' y1='1598.1' x2='2283.9' y2='1598.1' style="stroke-width:14.0;stroke:rgb(0,0,0);stroke-linecap:round;fill:none;" />
<text x="2300.6" y="1622.9" font-size="46.8px" font-family="CMUBright-Roman" style="text-anchor:start;fill:rgb(255,38,78);" transform="rotate(7.1,2300.6,1622.9)" >OZ2100<tspan baseline-shift="-40%" font-size="90%">s</tspan>00003</text>
</g>
<defs>
<pattern id="hline-sparse" width="10" height="10" patternTransform="rotate(0 0 0)" patternUnits="userSpaceOnUse"><line x1="0" y1="0" x2="10" y2="0" style="stroke:black;stroke-width:2" /></pattern>
<pattern id="hline" width="10" height="10" patternTransform="rotate(0 0 0)" patternUnits="userSpaceOnUse"><line x1="0" y1="0" x2="10" y2="0" style="stroke:black;stroke-width:5" /></pattern>
<pattern id="checker" width="10" height="10" patternTransform="rotate(45 0 0)" patternUnits="userSpaceOnUse"><line x1="0" y1="0" x2="10" y2="0" style="stroke:black;stroke-width:5" /><line x1="0" y1="0" x2="0" y2="10" style="stroke:black;stroke-width:4" /></pattern>
<pattern id="vline" width="10" height="10" patternTransform="rotate(0 0 0)" patternUnits="userSpaceOnUse"><line x1="0" y1="0" x2="0" y2="10" style="stroke:black;stroke-width:5" /></pattern>
<pattern id="vline-sparse" width="10" height="10" patternTransform="rotate(0 0 0)" patternUnits="userSpaceOnUse"><line x1="0" y1="0" x2="0" y2="10" style="stroke:black;stroke-width:2" /></pattern>
<pattern id="checker" width="10" height="10" patternTransform="rotate(45 0 0)" patternUnits="userSpaceOnUse"><line x1="0" y1="0" x2="10" y2="0" style="stroke:black;stroke-width:2" /><line x1="0" y1="0" x2="0" y2="10" style="stroke:black;stroke-width:2" /></pattern>
</defs>
</svg>
