<?xml version="1.0" encoding="utf-8" standalone="no"?>
<!DOCTYPE svg PUBLIC "-//W3C//DTD SVG 1.1//EN" "http://www.w3.org/Graphics/SVG/1.1/DTD/svg11.dtd">
<svg width="3000px" height="3000px" version="1.1" xmlns="http://www.w3.org/2000/svg" xmlns:xlink="http://www.w3.org/1999/xlink">
<g id="bg">
<rect x="0" y="0" width="3000px" height="3000px" style="fill:rgb(255,255,255);"/>
</g>
<g id="ideograms">
<path d="M1500.000,950.000 A550.000,550.000 40.000 1,1 1371.894,2034.873 L1325.311,2229.372 A750.000,750.000 0.000 1,0 1500.000,750.000 Z" style="stroke-width:2.0;stroke:rgb(0,0,0);stroke-linecap:round;fill:rgb(179,177,178);" />
<text x="2513.0" y="1619.6" font-size="46.8px" font-family="CMUBright-Roman" style="text-anchor:middle;fill:rgb(0,0,0);" transform="rotate(-83.3,2513.0,1619.6)" >OZ2100<tspan baseline-shift="-40%" font-size="90%">3</tspan>0</text>
<line x1='1544.2' y1='751.3' x2='1544.9' y2='739.3' style="stroke-width:8.0;stroke:rgb(150,150,150);stroke-linecap:round;fill:none;" />
<line x1='1627.4' y1='760.9' x2='1629.5' y2='749.1' style="stroke-width:8.0;stroke:rgb(150,150,150);stroke-linecap:round;fill:none;" />
<line x1='1709.1' y1='779.7' x2='1712.4' y2='768.2' style="stroke-width:8.0;stroke:rgb(150,150,150);stroke-linecap:round;fill:none;" />
<line x1='1788.1' y1='807.6' x2='1792.7' y2='796.5' style="stroke-width:8.0;stroke:rgb(150,150,150);stroke-linecap:round;fill:none;" />
<line x1='1863.6' y1='844.0' x2='1869.4' y2='833.5' style="stroke-width:8.0;stroke:rgb(150,150,150);stroke-linecap:round;fill:none;" />
<text x="1887.4" y="829.9" font-size="41.6px" font-family="CMUBright-Roman" style="text-anchor:start;fill:rgb(150,150,150);" transform="rotate(299.0,1887.4,829.9)" >250 kb</text>
<line x1='1934.5' y1='888.7' x2='1941.4' y2='878.9' style="stroke-width:8.0;stroke:rgb(150,150,150);stroke-linecap:round;fill:none;" />
<line x1='2000.0' y1='941.0' x2='2008.0' y2='932.0' style="stroke-width:8.0;stroke:rgb(150,150,150);stroke-linecap:round;fill:none;" />
<line x1='2059.2' y1='1000.2' x2='2068.2' y2='992.2' style="stroke-width:8.0;stroke:rgb(150,150,150);stroke-linecap:round;fill:none;" />
<line x1='2111.5' y1='1065.7' x2='2121.3' y2='1058.8' style="stroke-width:8.0;stroke:rgb(150,150,150);stroke-linecap:round;fill:none;" />
<line x1='2156.1' y1='1136.7' x2='2166.6' y2='1130.8' style="stroke-width:8.0;stroke:rgb(150,150,150);stroke-linecap:round;fill:none;" />
<text x="2183.8" y="1137.3" font-size="41.6px" font-family="CMUBright-Roman" style="text-anchor:start;fill:rgb(150,150,150);" transform="rotate(331.0,2183.8,1137.3)" >300 kb</text>
<line x1='2192.5' y1='1212.1' x2='2203.6' y2='1207.5' style="stroke-width:8.0;stroke:rgb(150,150,150);stroke-linecap:round;fill:none;" />
<line x1='2220.3' y1='1291.2' x2='2231.9' y2='1287.8' style="stroke-width:8.0;stroke:rgb(150,150,150);stroke-linecap:round;fill:none;" />
<line x1='2239.1' y1='1372.8' x2='2251.0' y2='1370.8' style="stroke-width:8.0;stroke:rgb(150,150,150);stroke-linecap:round;fill:none;" />
<line x1='2248.7' y1='1456.1' x2='2260.7' y2='1455.4' style="stroke-width:8.0;stroke:rgb(150,150,150);stroke-linecap:round;fill:none;" />
<line x1='2248.9' y1='1539.9' x2='2260.9' y2='1540.5' style="stroke-width:8.0;stroke:rgb(150,150,150);stroke-linecap:round;fill:none;" />
<text x="2272.0" y="1555.1" font-size="41.6px" font-family="CMUBright-Roman" style="text-anchor:start;fill:rgb(150,150,150);" transform="rotate(3.0,2272.0,1555.1)" >350 kb</text>
<line x1='2239.8' y1='1623.2' x2='2251.7' y2='1625.1' style="stroke-width:8.0;stroke:rgb(150,150,150);stroke-linecap:round;fill:none;" />
<line x1='2221.5' y1='1704.9' x2='2233.0' y2='1708.2' style="stroke-width:8.0;stroke:rgb(150,150,150);stroke-linecap:round;fill:none;" />
<line x1='2194.1' y1='1784.1' x2='2205.2' y2='1788.7' style="stroke-width:8.0;stroke:rgb(150,150,150);stroke-linecap:round;fill:none;" />
<line x1='2158.1' y1='1859.8' x2='2168.6' y2='1865.5' style="stroke-width:8.0;stroke:rgb(150,150,150);stroke-linecap:round;fill:none;" />
<line x1='2113.8' y1='1931.0' x2='2123.6' y2='1937.9' style="stroke-width:8.0;stroke:rgb(150,150,150);stroke-linecap:round;fill:none;" />
<text x="2125.3" y="1956.1" font-size="41.6px" font-family="CMUBright-Roman" style="text-anchor:start;fill:rgb(150,150,150);" transform="rotate(35.1,2125.3,1956.1)" >400 kb</text>
<line x1='2061.9' y1='1996.7' x2='2070.9' y2='2004.7' style="stroke-width:8.0;stroke:rgb(150,150,150);stroke-linecap:round;fill:none;" />
<line x1='2003.0' y1='2056.3' x2='2011.0' y2='2065.2' style="stroke-width:8.0;stroke:rgb(150,150,150);stroke-linecap:round;fill:none;" />
<line x1='1937.8' y1='2109.0' x2='1944.8' y2='2118.7' style="stroke-width:8.0;stroke:rgb(150,150,150);stroke-linecap:round;fill:none;" />
<line x1='1867.1' y1='2154.0' x2='1873.0' y2='2164.5' style="stroke-width:8.0;stroke:rgb(150,150,150);stroke-linecap:round;fill:none;" />
<line x1='1791.9' y1='2190.9' x2='1796.5' y2='2201.9' style="stroke-width:8.0;stroke:rgb(150,150,150);stroke-linecap:round;fill:none;" />
<text x="1788.3" y="2218.3" font-size="41.6px" font-family="CMUBright-Roman" style="text-anchor:start;fill:rgb(150,150,150);" transform="rotate(67.1,1788.3,2218.3)" >450 kb</text>
<line x1='1713.0' y1='2219.1' x2='1716.4' y2='2230.6' style="stroke-width:8.0;stroke:rgb(150,150,150);stroke-linecap:round;fill:none;" />
<line x1='1631.4' y1='2238.4' x2='1633.5' y2='2250.2' style="stroke-width:8.0;stroke:rgb(150,150,150);stroke-linecap:round;fill:none;" />
<line x1='1548.2' y1='2248.4' x2='1549.0' y2='2260.4' style="stroke-width:8.0;stroke:rgb(150,150,150);stroke-linecap:round;fill:none;" />
<line x1='1464.4' y1='2249.2' x2='1463.9' y2='2261.1' style="stroke-width:8.0;stroke:rgb(150,150,150);stroke-linecap:round;fill:none;" />
<line x1='1381.1' y1='2240.5' x2='1379.2' y2='2252.4' style="stroke-width:8.0;stroke:rgb(150,150,150);stroke-linecap:round;fill:none;" />
<text x="1391.1" y="2266.3" font-size="41.6px" font-family="CMUBright-Roman" style="text-anchor:end;fill:rgb(150,150,150);" transform="rotate(-80.9,1391.1,2266.3)" >500 kb</text>
<g id="highlighttrack_0">
<path d="M1994.545,1259.324 A550.000,550.000 40.000 0,1 1924.886,1849.245 L2079.389,1976.244 A750.000,750.000 0.000 0,0 2174.380,1171.806 Z" style="stroke-width:14.0;stroke:rgb(0,0,0);stroke-linecap:round;fill:rgb(255,38,78);" />
</g>
<path d="M1500.000,950.000 A550.000,550.000 40.000 1,1 1371.894,2034.873 L1325.311,2229.372 A750.000,750.000 0.000 1,0 1500.000,750.000 Z" style="stroke-width:2.0;stroke:rgb(0,0,0);stroke-linecap:round;fill:none;" />
<path d="M1202.998,1962.914 A550.000,550.000 40.000 0,1 1318.988,980.640 L1253.166,791.782 A750.000,750.000 0.000 0,0 1094.997,2131.247 Z" style="stroke-width:2.0;stroke:rgb(0,0,0);stroke-linecap:round;fill:rgb(179,177,178);" />
<text x="531.7" y="1385.7" font-size="46.8px" font-family="CMUBright-Roman" style="text-anchor:middle;fill:rgb(0,0,0);" transform="rotate(-83.3,531.7,1385.7)" >XcGTX0491<tspan baseline-shift="-40%" font-size="90%">4</tspan></text>
<line x1='1042.7' y1='2094.5' x2='1035.4' y2='2104.0' style="stroke-width:8.0;stroke:rgb(150,150,150);stroke-linecap:round;fill:none;" />
<line x1='979.3' y1='2039.7' x2='970.9' y2='2048.4' style="stroke-width:8.0;stroke:rgb(150,150,150);stroke-linecap:round;fill:none;" />
<line x1='922.3' y1='1978.3' x2='913.0' y2='1985.9' style="stroke-width:8.0;stroke:rgb(150,150,150);stroke-linecap:round;fill:none;" />
<line x1='872.5' y1='1910.8' x2='862.5' y2='1917.4' style="stroke-width:8.0;stroke:rgb(150,150,150);stroke-linecap:round;fill:none;" />
<line x1='830.6' y1='1838.3' x2='819.9' y2='1843.7' style="stroke-width:8.0;stroke:rgb(150,150,150);stroke-linecap:round;fill:none;" />
<text x="815.6" y="1861.6" font-size="41.6px" font-family="CMUBright-Roman" style="text-anchor:end;fill:rgb(150,150,150);" transform="rotate(-26.8,815.6,1861.6)" >1800 kb</text>
<line x1='797.1' y1='1761.5' x2='785.8' y2='1765.7' style="stroke-width:8.0;stroke:rgb(150,150,150);stroke-linecap:round;fill:none;" />
<line x1='772.3' y1='1681.5' x2='760.6' y2='1684.4' style="stroke-width:8.0;stroke:rgb(150,150,150);stroke-linecap:round;fill:none;" />
<line x1='756.6' y1='1599.1' x2='744.7' y2='1600.7' style="stroke-width:8.0;stroke:rgb(150,150,150);stroke-linecap:round;fill:none;" />
<line x1='750.2' y1='1515.6' x2='738.2' y2='1515.8' style="stroke-width:8.0;stroke:rgb(150,150,150);stroke-linecap:round;fill:none;" />
<line x1='753.1' y1='1431.8' x2='741.2' y2='1430.8' style="stroke-width:8.0;stroke:rgb(150,150,150);stroke-linecap:round;fill:none;" />
<text x="728.1" y="1443.6" font-size="41.6px" font-family="CMUBright-Roman" style="text-anchor:end;fill:rgb(150,150,150);" transform="rotate(5.2,728.1,1443.6)" >1850 kb</text>
<line x1='765.4' y1='1349.0' x2='753.6' y2='1346.5' style="stroke-width:8.0;stroke:rgb(150,150,150);stroke-linecap:round;fill:none;" />
<line x1='786.8' y1='1267.9' x2='775.4' y2='1264.2' style="stroke-width:8.0;stroke:rgb(150,150,150);stroke-linecap:round;fill:none;" />
<line x1='817.1' y1='1189.8' x2='806.2' y2='1184.9' style="stroke-width:8.0;stroke:rgb(150,150,150);stroke-linecap:round;fill:none;" />
<line x1='856.0' y1='1115.6' x2='845.7' y2='1109.4' style="stroke-width:8.0;stroke:rgb(150,150,150);stroke-linecap:round;fill:none;" />
<line x1='902.9' y1='1046.1' x2='893.4' y2='1038.9' style="stroke-width:8.0;stroke:rgb(150,150,150);stroke-linecap:round;fill:none;" />
<text x="875.4" y="1042.8" font-size="41.6px" font-family="CMUBright-Roman" style="text-anchor:end;fill:rgb(150,150,150);" transform="rotate(37.2,875.4,1042.8)" >1900 kb</text>
<line x1='957.3' y1='982.4' x2='948.6' y2='974.1' style="stroke-width:8.0;stroke:rgb(150,150,150);stroke-linecap:round;fill:none;" />
<line x1='1018.4' y1='925.1' x2='1010.7' y2='915.9' style="stroke-width:8.0;stroke:rgb(150,150,150);stroke-linecap:round;fill:none;" />
<line x1='1085.5' y1='874.9' x2='1078.9' y2='864.9' style="stroke-width:8.0;stroke:rgb(150,150,150);stroke-linecap:round;fill:none;" />
<line x1='1157.9' y1='832.6' x2='1152.4' y2='821.9' style="stroke-width:8.0;stroke:rgb(150,150,150);stroke-linecap:round;fill:none;" />
<line x1='1234.4' y1='798.6' x2='1230.2' y2='787.4' style="stroke-width:8.0;stroke:rgb(150,150,150);stroke-linecap:round;fill:none;" />
<text x="1212.9" y="781.2" font-size="41.6px" font-family="CMUBright-Roman" style="text-anchor:end;fill:rgb(150,150,150);" transform="rotate(69.3,1212.9,781.2)" >1950 kb</text>
<path d="M1202.998,1962.914 A550.000,550.000 40.000 0,1 1318.988,980.640 L1253.166,791.782 A750.000,750.000 0.000 0,0 1094.997,2131.247 Z" style="stroke-width:2.0;stroke:rgb(0,0,0);stroke-linecap:round;fill:none;" />
</g>
<g id="track_0">
<path d="M 1650.479,999.638 A 522.500,522.500 0.00 0,1 1740.8,1036.3 L 1740.8,1036.3 1730.6,1055.2 1720.0,1074.0 1708.9,1092.4 1697.3,1110.5 1685.2,1128.1 1672.6,1145.1 1659.6,1161.4 1646.2,1177.0 1632.3,1191.8 1618.0,1205.7 1603.3,1218.7 1588.3,1230.7 1572.8,1241.7 1557.1,1251.6 1541.0,1260.3 1524.6,1267.9 1508.0,1274.4 1491.0,1279.6 1473.9,1283.7 1456.5,1286.5 1439.0,1288.1 1421.3,1288.4 1403.4,1287.6 1385.5,1285.5 1367.4,1282.3 1349.4,1277.9 1331.3,1272.3 1313.2,1265.7 1295.2,1258.0 1277.2,1249.3 1259.4,1239.6 1241.7,1229.1 1224.2,1217.7 1206.9,1205.5 1189.9,1192.7 1173.2,1179.2 1156.8,1165.2 1140.8,1150.7 1125.2,1135.9  A 522.500,522.500 0.00 0,1 1199.7,1072.4 L 1199.7,1072.4 1211.8,1089.3 1224.3,1105.9 1237.1,1122.1 1250.1,1137.8 1263.4,1152.9 1276.8,1167.3 1290.4,1180.9 1304.2,1193.6 1318.0,1205.3 1331.8,1216.0 1345.7,1225.6 1359.6,1234.0 1373.4,1241.3 1387.2,1247.2 1400.9,1251.9 1414.5,1255.3 1427.9,1257.3 1441.2,1258.0 1454.2,1257.3 1467.1,1255.2 1479.7,1251.8 1492.1,1247.0 1504.2,1240.8 1516.0,1233.4 1527.5,1224.6 1538.7,1214.6 1549.6,1203.4 1560.1,1191.0 1570.3,1177.5 1580.1,1163.0 1589.5,1147.5 1598.5,1131.2 1607.2,1114.0 1615.4,1096.1 1623.2,1077.6 1630.7,1058.6 1637.7,1039.2 1644.3,1019.5 1650.5,999.6  Z" style="stroke-width: 0.5;  stroke: rgb(0,0,0); fill: rgb(179,177,178);" />
<path d="M 1903.641,1831.783 A 522.500,522.500 0.00 0,1 1849.9,1888.0 L 1849.9,1888.0 1833.6,1870.3 1816.9,1852.6 1799.7,1835.2 1782.0,1817.9 1763.9,1800.9 1745.4,1784.1 1726.5,1767.7 1707.1,1751.6 1687.3,1735.9 1667.1,1720.6 1646.5,1705.8 1625.5,1691.4 1604.2,1677.5 1582.5,1664.1 1560.4,1651.2 1538.0,1638.9 1515.3,1627.1 1492.4,1615.9 1469.1,1605.3 1445.5,1595.2 1421.8,1585.8 1397.7,1577.0 1373.5,1568.8 1349.1,1561.2 1324.6,1554.3 1299.9,1547.9 1275.0,1542.2 1250.1,1537.0 1225.2,1532.5 1200.1,1528.5 1175.1,1525.1 1150.1,1522.3 1125.1,1520.0 1100.2,1518.2 1075.4,1517.0 1050.7,1516.3 1026.2,1516.0 1001.9,1516.1 977.8,1516.7  A 522.500,522.500 0.00 0,1 981.1,1438.7 L 981.1,1438.7 1005.9,1441.8 1030.9,1445.2 1056.0,1448.9 1081.2,1453.0 1106.5,1457.4 1131.9,1462.2 1157.3,1467.3 1182.8,1472.9 1208.2,1478.8 1233.7,1485.1 1259.1,1491.9 1284.5,1499.0 1309.8,1506.6 1335.1,1514.6 1360.3,1522.9 1385.3,1531.7 1410.3,1541.0 1435.1,1550.6 1459.7,1560.6 1484.2,1571.0 1508.5,1581.9 1532.6,1593.1 1556.5,1604.7 1580.2,1616.7 1603.7,1629.0 1627.0,1641.7 1650.0,1654.7 1672.7,1668.1 1695.2,1681.8 1717.4,1695.7 1739.3,1710.0 1760.9,1724.5 1782.3,1739.3 1803.3,1754.3 1824.0,1769.4 1844.4,1784.8 1864.5,1800.3 1884.2,1816.0 1903.6,1831.8  Z" style="stroke-width: 0.5;  stroke: rgb(0,0,0); fill: rgb(179,177,178);" />
<path d="M 1783.610,1061.170 A 522.500,522.500 0.00 0,1 1844.9,1107.5 L 1844.9,1107.5 1829.8,1124.4 1814.1,1141.0 1798.0,1157.3 1781.3,1173.2 1764.1,1188.7 1746.5,1203.7 1728.5,1218.1 1710.0,1231.9 1691.1,1245.0 1671.8,1257.4 1652.1,1269.1 1632.1,1280.0 1611.8,1290.0 1591.1,1299.2 1570.2,1307.5 1549.0,1314.8 1527.5,1321.3 1505.9,1326.8 1484.0,1331.3 1462.0,1334.9 1439.8,1337.5 1417.5,1339.1 1395.1,1339.8 1372.6,1339.5 1350.2,1338.2 1327.7,1336.0 1305.2,1332.9 1282.8,1328.9 1260.4,1324.0 1238.2,1318.3 1216.1,1311.8 1194.2,1304.6 1172.6,1296.6 1151.1,1288.0 1130.0,1278.7 1109.1,1268.8 1088.6,1258.5 1068.5,1247.7 1048.8,1236.5  A 522.500,522.500 0.00 0,1 1092.3,1173.2 L 1092.3,1173.2 1109.5,1186.7 1127.2,1199.9 1145.3,1212.5 1163.8,1224.7 1182.5,1236.2 1201.5,1247.1 1220.8,1257.2 1240.3,1266.6 1259.9,1275.0 1279.7,1282.6 1299.6,1289.2 1319.5,1294.9 1339.5,1299.5 1359.5,1303.0 1379.4,1305.5 1399.3,1306.9 1419.1,1307.1 1438.8,1306.2 1458.3,1304.2 1477.7,1301.1 1496.9,1296.8 1515.8,1291.4 1534.5,1284.9 1553.0,1277.4 1571.1,1268.7 1588.9,1259.0 1606.4,1248.4 1623.6,1236.7 1640.3,1224.1 1656.7,1210.7 1672.7,1196.5 1688.2,1181.5 1703.3,1165.8 1717.9,1149.4 1732.0,1132.6 1745.7,1115.2 1758.9,1097.5 1771.5,1079.4 1783.6,1061.2  Z" style="stroke-width: 0.5;  stroke: rgb(0,0,0); fill: rgb(179,177,178);" />
<path d="M 1883.299,1144.911 A 522.500,522.500 0.00 0,1 1911.7,1178.3 L 1911.7,1178.3 1892.9,1192.7 1873.7,1206.8 1854.0,1220.7 1833.9,1234.3 1813.3,1247.4 1792.4,1260.2 1771.1,1272.5 1749.4,1284.3 1727.4,1295.5 1705.1,1306.2 1682.4,1316.4 1659.5,1325.8 1636.3,1334.7 1612.8,1342.9 1589.1,1350.4 1565.2,1357.2 1541.1,1363.3 1516.8,1368.7 1492.4,1373.4 1467.8,1377.3 1443.2,1380.5 1418.4,1382.9 1393.6,1384.6 1368.8,1385.6 1343.9,1385.8 1319.0,1385.4 1294.2,1384.2 1269.5,1382.3 1244.8,1379.7 1220.2,1376.5 1195.8,1372.7 1171.5,1368.2 1147.5,1363.2 1123.6,1357.6 1100.0,1351.4 1076.7,1344.8 1053.6,1337.8 1030.9,1330.3 1008.6,1322.5  A 522.500,522.500 0.00 0,1 1025.2,1282.0 L 1025.2,1282.0 1046.3,1291.4 1067.9,1300.5 1089.9,1309.1 1112.1,1317.3 1134.7,1324.9 1157.5,1332.0 1180.6,1338.4 1203.9,1344.2 1227.3,1349.3 1250.9,1353.7 1274.6,1357.3 1298.4,1360.2 1322.3,1362.3 1346.2,1363.6 1370.1,1364.0 1393.9,1363.7 1417.8,1362.5 1441.5,1360.4 1465.2,1357.5 1488.7,1353.7 1512.1,1349.1 1535.3,1343.7 1558.3,1337.4 1581.1,1330.3 1603.7,1322.5 1626.0,1313.8 1648.0,1304.4 1669.7,1294.2 1691.1,1283.4 1712.2,1271.9 1732.9,1259.7 1753.2,1247.0 1773.1,1233.7 1792.6,1219.8 1811.7,1205.6 1830.3,1190.9 1848.4,1175.8 1866.1,1160.5 1883.3,1144.9  Z" style="stroke-width: 0.5;  stroke: rgb(0,0,0); fill: rgb(179,177,178);" />
<path d="M 1912.490,1179.284 A 522.500,522.500 0.00 0,1 1936.2,1212.4 L 1936.2,1212.4 1915.9,1225.5 1895.2,1238.4 1874.2,1251.1 1852.7,1263.4 1830.9,1275.4 1808.7,1287.0 1786.2,1298.3 1763.4,1309.1 1740.2,1319.4 1716.8,1329.3 1693.1,1338.6 1669.2,1347.4 1645.0,1355.7 1620.6,1363.4 1595.9,1370.5 1571.1,1377.1 1546.2,1383.0 1521.1,1388.3 1495.8,1393.0 1470.5,1397.1 1445.0,1400.6 1419.5,1403.4 1393.9,1405.6 1368.3,1407.1 1342.7,1408.1 1317.1,1408.4 1291.6,1408.1 1266.1,1407.2 1240.6,1405.8 1215.3,1403.8 1190.1,1401.2 1165.0,1398.1 1140.1,1394.5 1115.4,1390.4 1090.9,1385.8 1066.7,1380.8 1042.7,1375.4 1019.0,1369.6 995.6,1363.5  A 522.500,522.500 0.00 0,1 1007.8,1324.7 L 1007.8,1324.7 1030.2,1332.5 1052.9,1339.8 1076.0,1346.8 1099.4,1353.3 1123.1,1359.3 1147.0,1364.9 1171.1,1369.8 1195.4,1374.2 1219.8,1378.0 1244.5,1381.1 1269.2,1383.6 1294.0,1385.4 1318.8,1386.5 1343.7,1386.9 1368.6,1386.7 1393.5,1385.6 1418.3,1383.9 1443.1,1381.4 1467.8,1378.2 1492.4,1374.2 1516.9,1369.5 1541.2,1364.1 1565.3,1358.0 1589.3,1351.2 1613.0,1343.7 1636.5,1335.5 1659.7,1326.6 1682.7,1317.1 1705.4,1307.0 1727.8,1296.3 1749.8,1285.1 1771.5,1273.3 1792.9,1261.0 1813.9,1248.3 1834.4,1235.1 1854.6,1221.6 1874.3,1207.8 1893.6,1193.7 1912.5,1179.3  Z" style="stroke-width: 0.5;  stroke: rgb(0,0,0); fill: rgb(179,177,178);" />
<path d="M 1847.156,1109.502 A 522.500,522.500 0.00 0,1 1873.5,1134.6 L 1873.5,1134.6 1856.9,1150.5 1839.7,1166.2 1822.1,1181.6 1804.0,1196.7 1785.4,1211.3 1766.4,1225.4 1746.9,1239.0 1727.1,1252.1 1706.9,1264.5 1686.2,1276.2 1665.3,1287.3 1644.0,1297.6 1622.4,1307.2 1600.5,1316.0 1578.4,1324.0 1556.0,1331.2 1533.4,1337.5 1510.5,1342.9 1487.5,1347.5 1464.4,1351.2 1441.1,1354.0 1417.7,1355.9 1394.3,1357.0 1370.7,1357.1 1347.2,1356.4 1323.7,1354.9 1300.2,1352.5 1276.7,1349.3 1253.4,1345.3 1230.1,1340.5 1207.0,1335.0 1184.1,1328.8 1161.4,1321.9 1138.9,1314.4 1116.7,1306.3 1094.8,1297.7 1073.3,1288.5 1052.1,1279.0 1031.3,1269.0  A 522.500,522.500 0.00 0,1 1048.6,1236.9 L 1048.6,1236.9 1068.3,1248.0 1088.4,1258.9 1109.0,1269.2 1129.8,1279.0 1151.0,1288.3 1172.5,1297.0 1194.2,1305.0 1216.1,1312.2 1238.2,1318.7 1260.5,1324.4 1282.9,1329.3 1305.3,1333.3 1327.8,1336.4 1350.4,1338.7 1372.9,1339.9 1395.4,1340.3 1417.8,1339.6 1440.2,1338.1 1462.4,1335.5 1484.5,1332.0 1506.5,1327.5 1528.2,1322.1 1549.7,1315.7 1571.0,1308.3 1592.0,1300.1 1612.8,1291.0 1633.2,1281.0 1653.3,1270.2 1673.0,1258.6 1692.4,1246.3 1711.4,1233.2 1730.0,1219.5 1748.1,1205.2 1765.8,1190.3 1783.1,1174.9 1799.9,1159.0 1816.1,1142.8 1831.9,1126.3 1847.2,1109.5  Z" style="stroke-width: 0.5;  stroke: rgb(0,0,0); fill: rgb(179,177,178);" />
<path d="M 1956.084,1245.061 A 522.500,522.500 0.00 0,1 1969.8,1271.4 L 1969.8,1271.4 1947.3,1282.2 1924.4,1292.8 1901.3,1303.2 1877.9,1313.4 1854.2,1323.4 1830.2,1333.1 1806.1,1342.4 1781.6,1351.5 1757.0,1360.3 1732.2,1368.7 1707.1,1376.7 1681.9,1384.4 1656.5,1391.8 1630.9,1398.7 1605.2,1405.2 1579.4,1411.4 1553.4,1417.1 1527.3,1422.4 1501.2,1427.2 1474.9,1431.7 1448.6,1435.7 1422.3,1439.3 1395.9,1442.4 1369.5,1445.1 1343.0,1447.4 1316.6,1449.3 1290.2,1450.8 1263.9,1451.8 1237.6,1452.4 1211.3,1452.6 1185.2,1452.5 1159.1,1452.0 1133.2,1451.1 1107.4,1449.8 1081.8,1448.2 1056.3,1446.3 1031.0,1444.0 1006.0,1441.5 981.1,1438.7  A 522.500,522.500 0.00 0,1 985.6,1408.6 L 985.6,1408.6 1009.9,1412.7 1034.4,1416.6 1059.2,1420.1 1084.3,1423.2 1109.5,1426.0 1134.9,1428.4 1160.5,1430.4 1186.2,1431.9 1212.0,1433.0 1237.9,1433.7 1263.9,1433.9 1290.0,1433.5 1316.1,1432.7 1342.3,1431.4 1368.4,1429.6 1394.5,1427.3 1420.7,1424.5 1446.7,1421.2 1472.7,1417.3 1498.7,1412.9 1524.5,1408.1 1550.2,1402.7 1575.8,1396.8 1601.3,1390.4 1626.6,1383.5 1651.7,1376.2 1676.6,1368.4 1701.4,1360.1 1725.9,1351.5 1750.2,1342.4 1774.2,1332.9 1798.0,1323.0 1821.5,1312.7 1844.7,1302.2 1867.6,1291.3 1890.2,1280.1 1912.5,1268.6 1934.5,1256.9 1956.1,1245.1  Z" style="stroke-width: 0.5;  stroke: rgb(0,0,0); fill: rgb(179,177,178);" />
<path d="M 1741.474,1036.646 A 522.500,522.500 0.00 0,1 1766.2,1050.4 L 1766.2,1050.4 1754.9,1069.0 1743.1,1087.3 1730.8,1105.4 1718.0,1123.0 1704.7,1140.2 1690.9,1156.8 1676.7,1172.8 1662.0,1188.1 1646.9,1202.6 1631.4,1216.2 1615.4,1228.9 1599.1,1240.7 1582.5,1251.5 1565.5,1261.3 1548.2,1270.0 1530.6,1277.6 1512.7,1284.0 1494.6,1289.4 1476.2,1293.5 1457.7,1296.5 1439.0,1298.3 1420.1,1299.0 1401.1,1298.4 1382.0,1296.8 1362.8,1293.9 1343.6,1290.0 1324.4,1285.0 1305.3,1278.9 1286.1,1271.8 1267.1,1263.7 1248.2,1254.7 1229.5,1244.9 1211.0,1234.2 1192.7,1222.7 1174.6,1210.6 1156.9,1197.9 1139.6,1184.6 1122.6,1170.9 1106.0,1156.8  A 522.500,522.500 0.00 0,1 1124.9,1136.3 L 1124.9,1136.3 1140.5,1151.0 1156.5,1165.5 1172.9,1179.5 1189.7,1192.9 1206.7,1205.8 1224.0,1217.9 1241.5,1229.3 1259.2,1239.9 1277.1,1249.5 1295.1,1258.2 1313.1,1265.9 1331.2,1272.5 1349.3,1278.1 1367.4,1282.5 1385.5,1285.7 1403.4,1287.8 1421.3,1288.6 1439.0,1288.3 1456.6,1286.7 1474.0,1283.9 1491.2,1279.8 1508.1,1274.6 1524.8,1268.2 1541.2,1260.5 1557.4,1251.8 1573.1,1241.9 1588.6,1231.0 1603.7,1219.0 1618.4,1206.0 1632.7,1192.1 1646.6,1177.3 1660.1,1161.7 1673.1,1145.4 1685.7,1128.4 1697.8,1110.8 1709.5,1092.8 1720.7,1074.3 1731.3,1055.6 1741.5,1036.6  Z" style="stroke-width: 0.5;  stroke: rgb(0,0,0); fill: rgb(179,177,178);" />
<path d="M 1942.190,1221.659 A 522.500,522.500 0.00 0,1 1954.6,1242.4 L 1954.6,1242.4 1933.1,1254.4 1911.3,1266.2 1889.1,1277.7 1866.5,1289.0 1843.7,1300.0 1820.6,1310.6 1797.1,1320.9 1773.4,1330.9 1749.5,1340.4 1725.2,1349.6 1700.8,1358.3 1676.1,1366.6 1651.2,1374.4 1626.2,1381.8 1600.9,1388.6 1575.5,1395.0 1550.0,1400.8 1524.3,1406.2 1498.5,1411.0 1472.6,1415.3 1446.6,1419.1 1420.6,1422.4 1394.5,1425.1 1368.4,1427.3 1342.3,1429.0 1316.2,1430.2 1290.1,1430.9 1264.1,1431.0 1238.2,1430.7 1212.3,1429.9 1186.5,1428.6 1160.9,1426.9 1135.3,1424.8 1110.0,1422.2 1084.8,1419.2 1059.9,1415.8 1035.2,1412.1 1010.7,1408.0 986.5,1403.7  A 522.500,522.500 0.00 0,1 991.4,1380.2 L 991.4,1380.2 1015.1,1385.6 1039.2,1390.6 1063.4,1395.3 1088.0,1399.7 1112.8,1403.5 1137.7,1407.0 1162.9,1410.0 1188.2,1412.5 1213.6,1414.5 1239.2,1416.0 1264.8,1416.9 1290.6,1417.3 1316.3,1417.1 1342.1,1416.4 1367.9,1415.1 1393.7,1413.2 1419.5,1410.7 1445.2,1407.6 1470.8,1403.9 1496.4,1399.7 1521.9,1394.8 1547.2,1389.4 1572.4,1383.4 1597.4,1376.8 1622.2,1369.7 1646.8,1362.0 1671.3,1353.8 1695.5,1345.1 1719.4,1335.9 1743.1,1326.2 1766.6,1316.0 1789.7,1305.5 1812.5,1294.5 1835.0,1283.1 1857.2,1271.4 1879.0,1259.4 1900.4,1247.0 1921.5,1234.5 1942.2,1221.7  Z" style="stroke-width: 0.5;  stroke: rgb(0,0,0); fill: rgb(179,177,178);" />
<path d="M 1553.008,980.196 A 522.500,522.500 0.00 0,1 1569.4,982.1 L 1569.4,982.1 1566.6,1002.3 1563.4,1022.4 1560.0,1042.1 1556.2,1061.5 1552.1,1080.3 1547.7,1098.5 1543.0,1116.0 1537.9,1132.6 1532.5,1148.2 1526.9,1162.8 1520.8,1176.4 1514.5,1188.7 1507.9,1199.9 1500.9,1209.7 1493.7,1218.2 1486.1,1225.4 1478.3,1231.1 1470.2,1235.4 1461.9,1238.3 1453.3,1239.7 1444.4,1239.6 1435.4,1238.1 1426.2,1235.1 1416.8,1230.7 1407.2,1225.0 1397.5,1217.8 1387.6,1209.4 1377.7,1199.6 1367.7,1188.7 1357.7,1176.6 1347.6,1163.5 1337.6,1149.3 1327.6,1134.3 1317.6,1118.4 1307.8,1101.9 1298.1,1084.7 1288.5,1067.0 1279.2,1049.0 1270.1,1030.8  A 522.500,522.500 0.00 0,1 1285.3,1023.7 L 1285.3,1023.7 1293.7,1042.1 1302.4,1060.4 1311.3,1078.3 1320.3,1095.7 1329.4,1112.5 1338.6,1128.7 1347.9,1144.0 1357.1,1158.4 1366.4,1171.8 1375.6,1184.1 1384.8,1195.3 1393.9,1205.2 1402.8,1213.9 1411.7,1221.3 1420.4,1227.3 1428.9,1231.8 1437.3,1235.0 1445.4,1236.7 1453.3,1236.9 1461.0,1235.7 1468.5,1232.9 1475.7,1228.8 1482.6,1223.1 1489.2,1216.1 1495.6,1207.7 1501.7,1197.9 1507.4,1186.8 1512.9,1174.5 1518.1,1161.0 1522.9,1146.4 1527.5,1130.7 1531.7,1114.1 1535.6,1096.7 1539.2,1078.5 1542.6,1059.6 1545.6,1040.2 1548.3,1020.5 1550.8,1000.4 1553.0,980.2  Z" style="stroke-width: 0.5;  stroke: rgb(0,0,0); fill: rgb(179,177,178);" />
<path d="M 1770.028,1052.685 A 522.500,522.500 0.00 0,1 1782.5,1060.5 L 1782.5,1060.5 1770.5,1078.8 1757.9,1096.8 1744.8,1114.6 1731.2,1131.9 1717.1,1148.8 1702.5,1165.2 1687.5,1180.9 1672.0,1195.9 1656.1,1210.2 1639.8,1223.6 1623.1,1236.2 1606.0,1247.8 1588.6,1258.5 1570.8,1268.2 1552.7,1276.8 1534.3,1284.4 1515.7,1290.9 1496.8,1296.3 1477.7,1300.5 1458.3,1303.7 1438.9,1305.7 1419.2,1306.5 1399.5,1306.2 1379.7,1304.8 1359.8,1302.3 1339.8,1298.7 1319.9,1294.1 1300.0,1288.4 1280.2,1281.8 1260.5,1274.1 1240.9,1265.6 1221.5,1256.3 1202.3,1246.1 1183.3,1235.2 1164.6,1223.6 1146.2,1211.4 1128.2,1198.6 1110.5,1185.5 1093.3,1171.9  A 522.500,522.500 0.00 0,1 1102.7,1160.7 L 1102.7,1160.7 1119.4,1174.6 1136.5,1188.2 1154.1,1201.3 1172.0,1213.9 1190.2,1225.9 1208.6,1237.2 1227.4,1247.8 1246.3,1257.5 1265.3,1266.4 1284.5,1274.4 1303.8,1281.3 1323.2,1287.3 1342.6,1292.2 1361.9,1296.1 1381.3,1298.8 1400.6,1300.4 1419.7,1300.8 1438.8,1300.1 1457.7,1298.3 1476.5,1295.2 1495.0,1291.0 1513.3,1285.7 1531.4,1279.2 1549.2,1271.6 1566.7,1262.9 1583.9,1253.2 1600.7,1242.4 1617.2,1230.6 1633.3,1217.9 1649.0,1204.3 1664.3,1189.9 1679.2,1174.7 1693.6,1158.7 1707.6,1142.2 1721.1,1125.1 1734.1,1107.5 1746.6,1089.5 1758.6,1071.2 1770.0,1052.7  Z" style="stroke-width: 0.5;  stroke: rgb(0,0,0); fill: rgb(179,177,178);" />
<path d="M 1874.044,1135.175 A 522.500,522.500 0.00 0,1 1883.3,1144.9 L 1883.3,1144.9 1866.1,1160.4 1848.4,1175.8 1830.3,1190.8 1811.6,1205.5 1792.6,1219.8 1773.1,1233.6 1753.2,1246.9 1732.9,1259.6 1712.2,1271.8 1691.1,1283.3 1669.7,1294.1 1648.0,1304.2 1626.0,1313.7 1603.7,1322.3 1581.2,1330.2 1558.4,1337.2 1535.4,1343.5 1512.2,1348.9 1488.8,1353.5 1465.3,1357.2 1441.6,1360.1 1417.9,1362.1 1394.1,1363.3 1370.2,1363.6 1346.4,1363.1 1322.5,1361.8 1298.6,1359.7 1274.9,1356.8 1251.2,1353.1 1227.6,1348.7 1204.2,1343.5 1180.9,1337.7 1157.9,1331.2 1135.0,1324.1 1112.5,1316.4 1090.3,1308.2 1068.3,1299.6 1046.8,1290.4 1025.6,1280.9  A 522.500,522.500 0.00 0,1 1031.3,1269.0 L 1031.3,1269.0 1052.1,1279.0 1073.3,1288.6 1094.8,1297.7 1116.7,1306.4 1138.9,1314.5 1161.4,1322.0 1184.1,1328.9 1207.1,1335.1 1230.2,1340.6 1253.4,1345.4 1276.8,1349.4 1300.2,1352.6 1323.7,1355.0 1347.3,1356.5 1370.8,1357.2 1394.3,1357.1 1417.8,1356.1 1441.2,1354.1 1464.5,1351.3 1487.7,1347.7 1510.7,1343.1 1533.5,1337.7 1556.2,1331.4 1578.6,1324.2 1600.8,1316.3 1622.7,1307.5 1644.3,1297.9 1665.6,1287.6 1686.6,1276.6 1707.2,1264.8 1727.4,1252.4 1747.3,1239.4 1766.8,1225.8 1785.8,1211.7 1804.4,1197.1 1822.5,1182.1 1840.2,1166.8 1857.4,1151.1 1874.0,1135.2  Z" style="stroke-width: 0.5;  stroke: rgb(0,0,0); fill: rgb(179,177,178);" />
</g>
<g id="plot0">
<g id="plot0-axis">
</g>
<line x1='2245.3' y1='1583.7' x2='2245.3' y2='1583.7' style="stroke-width:14.0;stroke:rgb(0,0,0);stroke-linecap:round;fill:none;" />
<line x1='2245.3' y1='1583.7' x2='2285.1' y2='1588.1' style="stroke-width:14.0;stroke:rgb(0,0,0);stroke-linecap:round;fill:none;" />
<line x1='2285.1' y1='1588.1' x2='2285.1' y2='1588.1' style="stroke-width:14.0;stroke:rgb(0,0,0);stroke-linecap:round;fill:none;" />
<text x="2302.1" y="1612.7" font-size="46.8px" font-family="CMUBright-Roman" style="text-anchor:start;fill:rgb(255,38,78);" transform="rotate(6.4,2302.1,1612.7)" >OZ2100<tspan baseline-shift="-40%" font-size="90%">s</tspan>00001</text>
</g>
<defs>
<pattern id="hline-sparse" width="10" height="10" patternTransform="rotate(0 0 0)" patternUnits="userSpaceOnUse"><line x1="0" y1="0" x2="10" y2="0" style="stroke:black;stroke-width:2" /></pattern>
<pattern id="hline" width="10" height="10" patternTransform="rotate(0 0 0)" patternUnits="userSpaceOnUse"><line x1="0" y1="0" x2="10" y2="0" style="stroke:black;stroke-width:5" /></pattern>
<pattern id="checker" width="10" height="10" patternTransform="rotate(45 0 0)" patternUnits="userSpaceOnUse"><line x1="0" y1="0" x2="10" y2="0" style="stroke:black;stroke-width:5" /><line x1="0" y1="0" x2="0" y2="10" style="stroke:black;stroke-width:4" /></pattern>
<pattern id="vline-sparse" width="10" height="10" patternTransform="rotate(0 0 0)" patternUnits="userSpaceOnUse"><line x1="0" y1="0" x2="0" y2="10" style="stroke:black;stroke-width:2" /></pattern>
<pattern id="vline" width="10" height="10" patternTransform="rotate(0 0 0)" patternUnits="userSpaceOnUse"><line x1="0" y1="0" x2="0" y2="10" style="stroke:black;stroke-width:5" /></pattern>
<pattern id="checker" width="10" height="10" patternTransform="rotate(45 0 0)" patternUnits="userSpaceOnUse"><line x1="0" y1="0" x2="10" y2="0" style="stroke:black;stroke-width:2" /><line x1="0" y1="0" x2="0" y2="10" style="stroke:black;stroke-width:2" /></pattern>
</defs>
</svg>
