<?xml version="1.0" encoding="utf-8" standalone="no"?>
<!DOCTYPE svg PUBLIC "-//W3C//DTD SVG 1.1//EN" "http://www.w3.org/Graphics/SVG/1.1/DTD/svg11.dtd">
<svg width="3000px" height="3000px" version="1.1" xmlns="http://www.w3.org/2000/svg" xmlns:xlink="http://www.w3.org/1999/xlink">
<g id="bg">
<rect x="0" y="0" width="3000px" height="3000px" style="fill:rgb(255,255,255);"/>
</g>
<g id="ideograms">
<path d="M1500.000,950.000 A550.000,550.000 40.000 1,1 1421.374,2044.351 L1392.783,2242.297 A750.000,750.000 0.000 1,0 1500.000,750.000 Z" style="stroke-width:2.0;stroke:rgb(0,0,0);stroke-linecap:round;fill:rgb(179,177,178);" />
<text x="2516.4" y="1573.0" font-size="46.8px" font-family="CMUBright-Roman" style="text-anchor:middle;fill:rgb(0,0,0);" transform="rotate(-85.9,2516.4,1573.0)" >scaffold<tspan baseline-shift="-40%" font-size="90%">1</tspan>2</text>
<line x1='1566.0' y1='752.9' x2='1567.1' y2='741.0' style="stroke-width:8.0;stroke:rgb(150,150,150);stroke-linecap:round;fill:none;" />
<line x1='1651.6' y1='765.5' x2='1654.0' y2='753.7' style="stroke-width:8.0;stroke:rgb(150,150,150);stroke-linecap:round;fill:none;" />
<line x1='1735.1' y1='787.8' x2='1738.8' y2='776.4' style="stroke-width:8.0;stroke:rgb(150,150,150);stroke-linecap:round;fill:none;" />
<line x1='1815.4' y1='819.6' x2='1820.5' y2='808.7' style="stroke-width:8.0;stroke:rgb(150,150,150);stroke-linecap:round;fill:none;" />
<text x="1838.2" y="803.8" font-size="41.6px" font-family="CMUBright-Roman" style="text-anchor:start;fill:rgb(150,150,150);" transform="rotate(294.9,1838.2,803.8)" >600 kb</text>
<line x1='1891.6' y1='860.4' x2='1897.9' y2='850.1' style="stroke-width:8.0;stroke:rgb(150,150,150);stroke-linecap:round;fill:none;" />
<line x1='1962.6' y1='909.7' x2='1970.0' y2='900.2' style="stroke-width:8.0;stroke:rgb(150,150,150);stroke-linecap:round;fill:none;" />
<line x1='2027.5' y1='966.8' x2='2035.9' y2='958.3' style="stroke-width:8.0;stroke:rgb(150,150,150);stroke-linecap:round;fill:none;" />
<line x1='2085.3' y1='1031.1' x2='2094.7' y2='1023.6' style="stroke-width:8.0;stroke:rgb(150,150,150);stroke-linecap:round;fill:none;" />
<line x1='2135.4' y1='1101.5' x2='2145.5' y2='1095.1' style="stroke-width:8.0;stroke:rgb(150,150,150);stroke-linecap:round;fill:none;" />
<text x="2163.0" y="1100.7" font-size="41.6px" font-family="CMUBright-Roman" style="text-anchor:start;fill:rgb(150,150,150);" transform="rotate(327.9,2163.0,1100.7)" >650 kb</text>
<line x1='2177.0' y1='1177.3' x2='2187.8' y2='1172.1' style="stroke-width:8.0;stroke:rgb(150,150,150);stroke-linecap:round;fill:none;" />
<line x1='2209.6' y1='1257.3' x2='2221.0' y2='1253.4' style="stroke-width:8.0;stroke:rgb(150,150,150);stroke-linecap:round;fill:none;" />
<line x1='2232.9' y1='1340.6' x2='2244.6' y2='1338.0' style="stroke-width:8.0;stroke:rgb(150,150,150);stroke-linecap:round;fill:none;" />
<line x1='2246.3' y1='1425.9' x2='2258.3' y2='1424.8' style="stroke-width:8.0;stroke:rgb(150,150,150);stroke-linecap:round;fill:none;" />
<line x1='2249.9' y1='1512.3' x2='2261.9' y2='1512.5' style="stroke-width:8.0;stroke:rgb(150,150,150);stroke-linecap:round;fill:none;" />
<text x="2273.5" y="1526.7" font-size="41.6px" font-family="CMUBright-Roman" style="text-anchor:start;fill:rgb(150,150,150);" transform="rotate(0.9,2273.5,1526.7)" >700 kb</text>
<line x1='2243.5' y1='1598.5' x2='2255.4' y2='1600.1' style="stroke-width:8.0;stroke:rgb(150,150,150);stroke-linecap:round;fill:none;" />
<line x1='2227.2' y1='1683.4' x2='2238.9' y2='1686.3' style="stroke-width:8.0;stroke:rgb(150,150,150);stroke-linecap:round;fill:none;" />
<line x1='2201.3' y1='1765.9' x2='2212.5' y2='1770.1' style="stroke-width:8.0;stroke:rgb(150,150,150);stroke-linecap:round;fill:none;" />
<line x1='2166.1' y1='1844.8' x2='2176.7' y2='1850.3' style="stroke-width:8.0;stroke:rgb(150,150,150);stroke-linecap:round;fill:none;" />
<line x1='2122.0' y1='1919.1' x2='2131.9' y2='1925.8' style="stroke-width:8.0;stroke:rgb(150,150,150);stroke-linecap:round;fill:none;" />
<text x="2133.9" y="1944.1" font-size="41.6px" font-family="CMUBright-Roman" style="text-anchor:start;fill:rgb(150,150,150);" transform="rotate(34.0,2133.9,1944.1)" >750 kb</text>
<line x1='2069.6' y1='1987.9' x2='2078.7' y2='1995.7' style="stroke-width:8.0;stroke:rgb(150,150,150);stroke-linecap:round;fill:none;" />
<line x1='2009.7' y1='2050.2' x2='2017.8' y2='2059.0' style="stroke-width:8.0;stroke:rgb(150,150,150);stroke-linecap:round;fill:none;" />
<line x1='1943.0' y1='2105.2' x2='1950.1' y2='2114.9' style="stroke-width:8.0;stroke:rgb(150,150,150);stroke-linecap:round;fill:none;" />
<line x1='1870.4' y1='2152.1' x2='1876.4' y2='2162.6' style="stroke-width:8.0;stroke:rgb(150,150,150);stroke-linecap:round;fill:none;" />
<line x1='1792.9' y1='2190.4' x2='1797.6' y2='2201.5' style="stroke-width:8.0;stroke:rgb(150,150,150);stroke-linecap:round;fill:none;" />
<text x="1789.4" y="2217.9" font-size="41.6px" font-family="CMUBright-Roman" style="text-anchor:start;fill:rgb(150,150,150);" transform="rotate(67.0,1789.4,2217.9)" >800 kb</text>
<line x1='1711.6' y1='2219.5' x2='1714.9' y2='2231.1' style="stroke-width:8.0;stroke:rgb(150,150,150);stroke-linecap:round;fill:none;" />
<line x1='1627.4' y1='2239.1' x2='1629.4' y2='2250.9' style="stroke-width:8.0;stroke:rgb(150,150,150);stroke-linecap:round;fill:none;" />
<line x1='1541.5' y1='2248.9' x2='1542.1' y2='2260.8' style="stroke-width:8.0;stroke:rgb(150,150,150);stroke-linecap:round;fill:none;" />
<line x1='1455.0' y1='2248.7' x2='1454.3' y2='2260.6' style="stroke-width:8.0;stroke:rgb(150,150,150);stroke-linecap:round;fill:none;" />
<g id="highlighttrack_0">
<path d="M2002.719,1276.899 A550.000,550.000 40.000 0,1 1965.661,1792.677 L2134.993,1899.104 A750.000,750.000 0.000 0,0 2185.525,1195.771 Z" style="stroke-width:14.0;stroke:rgb(0,0,0);stroke-linecap:round;fill:rgb(255,38,78);" />
</g>
<path d="M1500.000,950.000 A550.000,550.000 40.000 1,1 1421.374,2044.351 L1392.783,2242.297 A750.000,750.000 0.000 1,0 1500.000,750.000 Z" style="stroke-width:2.0;stroke:rgb(0,0,0);stroke-linecap:round;fill:none;" />
<path d="M1241.455,1985.442 A550.000,550.000 40.000 0,1 1313.508,982.583 L1245.692,794.431 A750.000,750.000 0.000 0,0 1147.438,2161.967 Z" style="stroke-width:2.0;stroke:rgb(0,0,0);stroke-linecap:round;fill:rgb(179,177,178);" />
<text x="527.5" y="1430.1" font-size="46.8px" font-family="CMUBright-Roman" style="text-anchor:middle;fill:rgb(0,0,0);" transform="rotate(-85.9,527.5,1430.1)" >XcGTX0491<tspan baseline-shift="-40%" font-size="90%">4</tspan></text>
<line x1='1184.7' y1='819.5' x2='1179.7' y2='808.6' style="stroke-width:8.0;stroke:rgb(150,150,150);stroke-linecap:round;fill:none;" />
<line x1='1108.5' y1='860.3' x2='1102.2' y2='850.1' style="stroke-width:8.0;stroke:rgb(150,150,150);stroke-linecap:round;fill:none;" />
<line x1='1037.5' y1='909.6' x2='1030.1' y2='900.1' style="stroke-width:8.0;stroke:rgb(150,150,150);stroke-linecap:round;fill:none;" />
<line x1='972.6' y1='966.7' x2='964.2' y2='958.2' style="stroke-width:8.0;stroke:rgb(150,150,150);stroke-linecap:round;fill:none;" />
<line x1='914.8' y1='1030.9' x2='905.4' y2='1023.4' style="stroke-width:8.0;stroke:rgb(150,150,150);stroke-linecap:round;fill:none;" />
<text x="887.4" y="1026.9" font-size="41.6px" font-family="CMUBright-Roman" style="text-anchor:end;fill:rgb(150,150,150);" transform="rotate(38.7,887.4,1026.9)" >1800 kb</text>
<line x1='864.7' y1='1101.4' x2='854.5' y2='1095.0' style="stroke-width:8.0;stroke:rgb(150,150,150);stroke-linecap:round;fill:none;" />
<line x1='823.1' y1='1177.1' x2='812.2' y2='1172.0' style="stroke-width:8.0;stroke:rgb(150,150,150);stroke-linecap:round;fill:none;" />
<line x1='790.4' y1='1257.2' x2='779.0' y2='1253.3' style="stroke-width:8.0;stroke:rgb(150,150,150);stroke-linecap:round;fill:none;" />
<line x1='767.2' y1='1340.4' x2='755.4' y2='1337.9' style="stroke-width:8.0;stroke:rgb(150,150,150);stroke-linecap:round;fill:none;" />
<line x1='753.7' y1='1425.8' x2='741.7' y2='1424.6' style="stroke-width:8.0;stroke:rgb(150,150,150);stroke-linecap:round;fill:none;" />
<text x="728.5" y="1437.4" font-size="41.6px" font-family="CMUBright-Roman" style="text-anchor:end;fill:rgb(150,150,150);" transform="rotate(5.7,728.5,1437.4)" >1850 kb</text>
<line x1='750.1' y1='1512.2' x2='738.1' y2='1512.3' style="stroke-width:8.0;stroke:rgb(150,150,150);stroke-linecap:round;fill:none;" />
<line x1='756.5' y1='1598.4' x2='744.6' y2='1599.9' style="stroke-width:8.0;stroke:rgb(150,150,150);stroke-linecap:round;fill:none;" />
<line x1='772.7' y1='1683.2' x2='761.1' y2='1686.2' style="stroke-width:8.0;stroke:rgb(150,150,150);stroke-linecap:round;fill:none;" />
<line x1='798.6' y1='1765.7' x2='787.4' y2='1770.0' style="stroke-width:8.0;stroke:rgb(150,150,150);stroke-linecap:round;fill:none;" />
<line x1='833.9' y1='1844.6' x2='823.2' y2='1850.2' style="stroke-width:8.0;stroke:rgb(150,150,150);stroke-linecap:round;fill:none;" />
<text x="819.1" y="1868.0" font-size="41.6px" font-family="CMUBright-Roman" style="text-anchor:end;fill:rgb(150,150,150);" transform="rotate(-27.4,819.1,1868.0)" >1900 kb</text>
<line x1='878.0' y1='1919.0' x2='868.0' y2='1925.7' style="stroke-width:8.0;stroke:rgb(150,150,150);stroke-linecap:round;fill:none;" />
<line x1='930.3' y1='1987.8' x2='921.2' y2='1995.6' style="stroke-width:8.0;stroke:rgb(150,150,150);stroke-linecap:round;fill:none;" />
<line x1='990.2' y1='2050.1' x2='982.0' y2='2058.9' style="stroke-width:8.0;stroke:rgb(150,150,150);stroke-linecap:round;fill:none;" />
<line x1='1056.9' y1='2105.1' x2='1049.8' y2='2114.8' style="stroke-width:8.0;stroke:rgb(150,150,150);stroke-linecap:round;fill:none;" />
<line x1='1129.4' y1='2152.1' x2='1123.5' y2='2162.5' style="stroke-width:8.0;stroke:rgb(150,150,150);stroke-linecap:round;fill:none;" />
<text x="1129.8" y="2179.7" font-size="41.6px" font-family="CMUBright-Roman" style="text-anchor:end;fill:rgb(150,150,150);" transform="rotate(-60.4,1129.8,2179.7)" >1950 kb</text>
<path d="M1241.455,1985.442 A550.000,550.000 40.000 0,1 1313.508,982.583 L1245.692,794.431 A750.000,750.000 0.000 0,0 1147.438,2161.967 Z" style="stroke-width:2.0;stroke:rgb(0,0,0);stroke-linecap:round;fill:none;" />
</g>
<g id="track_0">
<path d="M 1679.411,1990.732 A 522.500,522.500 0.00 0,1 1582.2,2016.0 L 1582.2,2016.0 1578.7,1995.5 1574.7,1975.0 1570.3,1954.8 1565.5,1934.9 1560.1,1915.4 1554.3,1896.5 1547.9,1878.2 1541.1,1860.7 1533.7,1844.0 1525.8,1828.2 1517.4,1813.3 1508.4,1799.5 1499.0,1786.7 1489.0,1775.1 1478.6,1764.7 1467.6,1755.5 1456.2,1747.5 1444.3,1740.8 1432.0,1735.4 1419.2,1731.4 1406.1,1728.6 1392.5,1727.2 1378.6,1727.1 1364.3,1728.3 1349.8,1730.7 1334.9,1734.4 1319.8,1739.3 1304.5,1745.5 1289.1,1752.7 1273.5,1761.0 1257.8,1770.4 1242.0,1780.7 1226.3,1792.0 1210.6,1804.0 1195.0,1816.8 1179.5,1830.2 1164.2,1844.2 1149.1,1858.6 1134.4,1873.3  A 522.500,522.500 0.00 0,1 1069.4,1796.0 L 1069.4,1796.0 1087.3,1784.0 1105.6,1772.4 1124.2,1761.3 1143.1,1750.7 1162.2,1740.9 1181.4,1731.7 1200.7,1723.3 1220.1,1715.8 1239.6,1709.2 1259.0,1703.5 1278.3,1698.9 1297.5,1695.2 1316.6,1692.7 1335.5,1691.3 1354.2,1690.9 1372.7,1691.8 1390.9,1693.7 1408.7,1696.9 1426.3,1701.2 1443.5,1706.7 1460.3,1713.3 1476.7,1721.1 1492.6,1730.1 1508.2,1740.1 1523.2,1751.2 1537.8,1763.3 1551.9,1776.5 1565.5,1790.6 1578.5,1805.6 1591.0,1821.4 1603.0,1838.1 1614.5,1855.4 1625.4,1873.5 1635.8,1892.1 1645.6,1911.2 1654.9,1930.7 1663.6,1950.5 1671.8,1970.6 1679.4,1990.7  Z" style="stroke-width: 0.5;  stroke: rgb(0,0,0); fill: rgb(179,177,178);" />
<path d="M 1939.498,1217.427 A 522.500,522.500 0.00 0,1 1977.6,1288.1 L 1977.6,1288.1 1954.4,1298.2 1931.0,1308.2 1907.4,1317.9 1883.5,1327.5 1859.3,1336.9 1835.0,1346.0 1810.4,1354.9 1785.6,1363.5 1760.7,1371.8 1735.5,1379.9 1710.2,1387.6 1684.7,1395.0 1659.0,1402.1 1633.3,1408.8 1607.4,1415.2 1581.3,1421.3 1555.2,1427.0 1529.0,1432.3 1502.6,1437.3 1476.3,1441.9 1449.8,1446.2 1423.3,1450.0 1396.8,1453.5 1370.3,1456.7 1343.7,1459.4 1317.2,1461.8 1290.6,1463.8 1264.2,1465.5 1237.7,1466.8 1211.3,1467.8 1185.0,1468.4 1158.8,1468.8 1132.6,1468.7 1106.6,1468.4 1080.8,1467.8 1055.0,1466.9 1029.4,1465.7 1004.1,1464.3 978.8,1462.6  A 522.500,522.500 0.00 0,1 990.8,1383.0 L 990.8,1383.0 1014.5,1388.2 1038.5,1393.1 1062.9,1397.7 1087.4,1401.9 1112.2,1405.6 1137.2,1408.9 1162.3,1411.8 1187.6,1414.1 1213.1,1415.9 1238.6,1417.3 1264.3,1418.0 1290.0,1418.3 1315.7,1417.9 1341.5,1417.0 1367.3,1415.5 1393.0,1413.4 1418.8,1410.8 1444.4,1407.5 1470.0,1403.6 1495.6,1399.2 1520.9,1394.2 1546.2,1388.5 1571.3,1382.3 1596.3,1375.6 1621.0,1368.2 1645.6,1360.4 1669.9,1352.0 1694.1,1343.0 1717.9,1333.6 1741.5,1323.7 1764.8,1313.4 1787.9,1302.6 1810.6,1291.4 1832.9,1279.9 1855.0,1267.9 1876.7,1255.7 1898.0,1243.2 1918.9,1230.4 1939.5,1217.4  Z" style="stroke-width: 0.5;  stroke: rgb(0,0,0); fill: rgb(179,177,178);" />
<path d="M 1795.176,1931.135 A 522.500,522.500 0.00 0,1 1726.5,1970.8 L 1726.5,1970.8 1716.7,1951.1 1706.4,1931.5 1695.5,1912.2 1684.0,1893.1 1672.0,1874.4 1659.5,1856.2 1646.4,1838.6 1632.7,1821.6 1618.6,1805.2 1603.9,1789.5 1588.6,1774.7 1572.9,1760.7 1556.7,1747.5 1540.0,1735.3 1522.9,1724.0 1505.3,1713.8 1487.3,1704.5 1468.9,1696.3 1450.1,1689.1 1431.0,1683.0 1411.5,1677.9 1391.8,1674.0 1371.7,1671.1 1351.5,1669.3 1331.0,1668.5 1310.3,1668.8 1289.5,1670.1 1268.5,1672.4 1247.5,1675.7 1226.5,1679.9 1205.4,1685.0 1184.4,1691.0 1163.5,1697.8 1142.7,1705.3 1122.1,1713.6 1101.7,1722.5 1081.6,1731.9 1061.9,1741.9 1042.5,1752.3  A 522.500,522.500 0.00 0,1 1009.6,1680.3 L 1009.6,1680.3 1031.1,1672.7 1052.9,1665.5 1075.1,1658.8 1097.5,1652.7 1120.1,1647.2 1142.9,1642.3 1165.9,1638.1 1189.0,1634.6 1212.1,1631.9 1235.3,1630.0 1258.4,1628.9 1281.6,1628.6 1304.6,1629.2 1327.6,1630.7 1350.4,1633.1 1373.0,1636.4 1395.4,1640.6 1417.7,1645.7 1439.6,1651.7 1461.3,1658.6 1482.7,1666.4 1503.8,1675.2 1524.5,1684.7 1544.8,1695.2 1564.8,1706.5 1584.3,1718.5 1603.5,1731.4 1622.2,1745.0 1640.4,1759.3 1658.2,1774.3 1675.5,1789.9 1692.3,1806.1 1708.5,1822.9 1724.3,1840.1 1739.6,1857.7 1754.3,1875.7 1768.5,1894.0 1782.1,1912.5 1795.2,1931.1  Z" style="stroke-width: 0.5;  stroke: rgb(0,0,0); fill: rgb(179,177,178);" />
<path d="M 1872.130,1866.777 A 522.500,522.500 0.00 0,1 1839.0,1897.6 L 1839.0,1897.6 1823.7,1879.9 1807.8,1862.5 1791.5,1845.2 1774.6,1828.3 1757.3,1811.7 1739.4,1795.4 1721.1,1779.6 1702.4,1764.2 1683.1,1749.4 1663.5,1735.1 1643.4,1721.4 1622.9,1708.3 1602.1,1695.9 1580.8,1684.1 1559.2,1673.0 1537.3,1662.7 1515.0,1653.0 1492.4,1644.2 1469.6,1636.1 1446.5,1628.8 1423.2,1622.2 1399.6,1616.5 1375.9,1611.5 1352.0,1607.4 1327.9,1604.0 1303.8,1601.4 1279.5,1599.5 1255.3,1598.4 1231.0,1598.1 1206.7,1598.4 1182.4,1599.5 1158.2,1601.3 1134.2,1603.6 1110.2,1606.7 1086.5,1610.3 1062.9,1614.4 1039.6,1619.1 1016.6,1624.2 993.9,1629.8  A 522.500,522.500 0.00 0,1 984.6,1585.6 L 984.6,1585.6 1008.1,1581.9 1032.0,1578.6 1056.1,1575.8 1080.5,1573.4 1105.0,1571.5 1129.7,1570.1 1154.5,1569.3 1179.5,1569.1 1204.5,1569.5 1229.5,1570.4 1254.5,1572.0 1279.6,1574.3 1304.6,1577.2 1329.5,1580.8 1354.3,1585.0 1379.1,1589.9 1403.6,1595.5 1428.1,1601.8 1452.3,1608.7 1476.4,1616.3 1500.2,1624.6 1523.8,1633.6 1547.1,1643.2 1570.2,1653.4 1592.9,1664.2 1615.3,1675.6 1637.5,1687.7 1659.2,1700.2 1680.6,1713.3 1701.6,1727.0 1722.3,1741.0 1742.5,1755.6 1762.4,1770.5 1781.8,1785.9 1800.7,1801.5 1819.3,1817.5 1837.4,1833.7 1855.0,1850.2 1872.1,1866.8  Z" style="stroke-width: 0.5;  stroke: rgb(0,0,0); fill: rgb(179,177,178);" />
<path d="M 1901.234,1834.690 A 522.500,522.500 0.00 0,1 1873.1,1865.8 L 1873.1,1865.8 1855.8,1849.3 1838.2,1832.8 1820.0,1816.6 1801.5,1800.7 1782.4,1785.1 1763.0,1769.7 1743.1,1754.8 1722.8,1740.3 1702.1,1726.2 1681.1,1712.6 1659.6,1699.5 1637.8,1686.9 1615.7,1674.9 1593.2,1663.5 1570.4,1652.6 1547.4,1642.4 1524.0,1632.8 1500.4,1623.8 1476.5,1615.5 1452.5,1607.8 1428.2,1600.8 1403.7,1594.5 1379.1,1588.9 1354.4,1583.9 1329.5,1579.6 1304.5,1576.0 1279.5,1573.0 1254.5,1570.7 1229.4,1569.0 1204.3,1567.9 1179.3,1567.5 1154.4,1567.6 1129.5,1568.3 1104.8,1569.6 1080.2,1571.4 1055.9,1573.7 1031.7,1576.4 1007.8,1579.6 984.2,1583.2  A 522.500,522.500 0.00 0,1 979.2,1541.6 L 979.2,1541.6 1003.5,1539.8 1028.0,1538.4 1052.8,1537.4 1077.8,1536.9 1102.9,1536.7 1128.2,1537.0 1153.5,1537.8 1179.0,1539.1 1204.5,1540.9 1230.1,1543.2 1255.6,1546.0 1281.2,1549.4 1306.7,1553.4 1332.2,1557.9 1357.6,1562.9 1382.9,1568.5 1408.1,1574.7 1433.2,1581.5 1458.2,1588.8 1482.9,1596.6 1507.5,1605.1 1531.9,1614.0 1556.0,1623.5 1579.9,1633.6 1603.6,1644.1 1627.0,1655.2 1650.1,1666.7 1672.9,1678.7 1695.5,1691.1 1717.7,1704.0 1739.5,1717.3 1761.0,1730.9 1782.2,1744.9 1803.0,1759.3 1823.4,1773.9 1843.5,1788.8 1863.1,1803.9 1882.4,1819.2 1901.2,1834.7  Z" style="stroke-width: 0.5;  stroke: rgb(0,0,0); fill: rgb(179,177,178);" />
<path d="M 1827.717,1906.950 A 522.500,522.500 0.00 0,1 1797.7,1929.4 L 1797.7,1929.4 1784.5,1910.8 1770.7,1892.4 1756.4,1874.2 1741.6,1856.2 1726.2,1838.7 1710.4,1821.5 1694.0,1804.9 1677.1,1788.7 1659.7,1773.2 1641.8,1758.3 1623.5,1744.0 1604.7,1730.4 1585.5,1717.6 1565.8,1705.6 1545.8,1694.4 1525.3,1684.0 1504.5,1674.5 1483.4,1665.8 1461.9,1658.0 1440.2,1651.1 1418.2,1645.1 1395.9,1640.1 1373.4,1635.9 1350.7,1632.6 1327.9,1630.3 1304.9,1628.8 1281.8,1628.2 1258.6,1628.5 1235.4,1629.6 1212.2,1631.5 1189.0,1634.2 1165.9,1637.7 1142.9,1641.9 1120.1,1646.8 1097.4,1652.3 1075.0,1658.4 1052.8,1665.1 1030.9,1672.3 1009.4,1679.9  A 522.500,522.500 0.00 0,1 997.8,1644.1 L 997.8,1644.1 1020.1,1638.0 1042.9,1632.2 1065.9,1627.0 1089.1,1622.3 1112.6,1618.1 1136.2,1614.6 1160.0,1611.6 1183.9,1609.4 1207.9,1607.9 1231.9,1607.1 1255.9,1607.0 1279.9,1607.7 1303.9,1609.2 1327.7,1611.5 1351.5,1614.6 1375.0,1618.5 1398.5,1623.2 1421.7,1628.8 1444.7,1635.2 1467.4,1642.4 1489.9,1650.4 1512.1,1659.2 1534.0,1668.8 1555.5,1679.2 1576.7,1690.3 1597.5,1702.2 1618.0,1714.7 1638.0,1728.0 1657.6,1741.8 1676.8,1756.3 1695.5,1771.4 1713.7,1787.0 1731.5,1803.1 1748.8,1819.6 1765.6,1836.5 1781.9,1853.7 1797.7,1871.3 1813.0,1889.0 1827.7,1906.9  Z" style="stroke-width: 0.5;  stroke: rgb(0,0,0); fill: rgb(179,177,178);" />
<path d="M 1942.378,1778.043 A 522.500,522.500 0.00 0,1 1925.3,1803.5 L 1925.3,1803.5 1905.0,1789.1 1884.3,1774.9 1863.3,1760.9 1841.9,1747.1 1820.3,1733.5 1798.3,1720.1 1776.0,1707.0 1753.4,1694.2 1730.6,1681.7 1707.4,1669.5 1684.1,1657.6 1660.4,1646.1 1636.5,1635.0 1612.4,1624.3 1588.1,1613.9 1563.6,1604.0 1538.9,1594.4 1514.0,1585.3 1488.9,1576.7 1463.7,1568.4 1438.4,1560.6 1412.9,1553.3 1387.3,1546.4 1361.6,1540.0 1335.9,1534.0 1310.1,1528.4 1284.3,1523.3 1258.4,1518.6 1232.5,1514.4 1206.7,1510.6 1180.8,1507.2 1155.0,1504.2 1129.3,1501.7 1103.7,1499.5 1078.2,1497.7 1052.8,1496.2 1027.5,1495.2 1002.4,1494.4 977.5,1494.0  A 522.500,522.500 0.00 0,1 978.8,1462.5 L 978.8,1462.5 1004.0,1464.5 1029.4,1466.7 1054.9,1469.2 1080.5,1471.9 1106.2,1475.0 1132.0,1478.4 1157.8,1482.1 1183.7,1486.2 1209.7,1490.6 1235.7,1495.3 1261.6,1500.4 1287.6,1505.9 1313.6,1511.7 1339.5,1517.8 1365.4,1524.4 1391.2,1531.2 1417.0,1538.5 1442.6,1546.1 1468.2,1554.1 1493.7,1562.4 1519.0,1571.1 1544.2,1580.1 1569.2,1589.5 1594.1,1599.2 1618.9,1609.3 1643.4,1619.7 1667.8,1630.3 1691.9,1641.3 1715.9,1652.6 1739.7,1664.1 1763.2,1675.9 1786.5,1688.0 1809.5,1700.3 1832.3,1712.8 1854.9,1725.5 1877.2,1738.4 1899.2,1751.5 1920.9,1764.7 1942.4,1778.0  Z" style="stroke-width: 0.5;  stroke: rgb(0,0,0); fill: rgb(179,177,178);" />
<path d="M 1707.341,1979.600 A 522.500,522.500 0.00 0,1 1680.2,1990.4 L 1680.2,1990.4 1672.5,1970.3 1664.3,1950.2 1655.5,1930.4 1646.2,1910.9 1636.4,1891.8 1626.0,1873.2 1615.0,1855.2 1603.6,1837.8 1591.5,1821.2 1579.0,1805.3 1565.9,1790.3 1552.3,1776.3 1538.1,1763.1 1523.5,1751.0 1508.4,1739.9 1492.9,1729.9 1476.9,1721.0 1460.5,1713.2 1443.6,1706.5 1426.4,1701.0 1408.8,1696.7 1390.9,1693.5 1372.7,1691.6 1354.3,1690.7 1335.5,1691.0 1316.6,1692.5 1297.5,1695.0 1278.2,1698.6 1258.9,1703.3 1239.4,1708.9 1220.0,1715.5 1200.6,1723.0 1181.2,1731.4 1162.0,1740.5 1142.9,1750.4 1124.0,1760.9 1105.4,1772.0 1087.1,1783.6 1069.2,1795.6  A 522.500,522.500 0.00 0,1 1053.5,1771.4 L 1053.5,1771.4 1072.3,1760.3 1091.5,1749.6 1111.0,1739.4 1130.7,1729.8 1150.7,1720.9 1170.8,1712.6 1191.1,1705.1 1211.4,1698.5 1231.8,1692.7 1252.2,1687.8 1272.5,1684.0 1292.7,1681.1 1312.9,1679.2 1332.8,1678.4 1352.6,1678.7 1372.1,1680.1 1391.4,1682.6 1410.4,1686.2 1429.1,1690.9 1447.4,1696.8 1465.4,1703.7 1483.0,1711.8 1500.2,1720.9 1516.9,1731.1 1533.2,1742.2 1549.1,1754.4 1564.4,1767.6 1579.3,1781.6 1593.6,1796.6 1607.4,1812.3 1620.7,1828.8 1633.5,1846.0 1645.7,1863.8 1657.3,1882.2 1668.4,1901.0 1679.0,1920.3 1689.0,1939.9 1698.4,1959.7 1707.3,1979.6  Z" style="stroke-width: 0.5;  stroke: rgb(0,0,0); fill: rgb(179,177,178);" />
<path d="M 1923.511,1806.015 A 522.500,522.500 0.00 0,1 1908.4,1825.9 L 1908.4,1825.9 1889.1,1810.7 1869.4,1795.7 1849.4,1780.8 1828.9,1766.2 1808.1,1751.8 1787.0,1737.8 1765.5,1724.0 1743.6,1710.5 1721.5,1697.4 1699.0,1684.7 1676.2,1672.3 1653.1,1660.4 1629.8,1648.9 1606.1,1637.9 1582.3,1627.3 1558.2,1617.2 1533.8,1607.6 1509.3,1598.5 1484.6,1589.9 1459.7,1581.8 1434.6,1574.3 1409.4,1567.2 1384.1,1560.7 1358.6,1554.7 1333.1,1549.3 1307.5,1544.3 1281.9,1539.9 1256.2,1536.0 1230.5,1532.6 1204.8,1529.7 1179.2,1527.3 1153.6,1525.4 1128.1,1523.9 1102.7,1522.9 1077.4,1522.3 1052.3,1522.1 1027.3,1522.3 1002.6,1522.9 978.0,1523.9  A 522.500,522.500 0.00 0,1 977.5,1499.1 L 977.5,1499.1 1002.3,1499.3 1027.4,1499.8 1052.6,1500.7 1078.0,1501.9 1103.5,1503.5 1129.1,1505.4 1154.8,1507.8 1180.5,1510.6 1206.4,1513.8 1232.2,1517.4 1258.1,1521.5 1283.9,1526.0 1309.7,1531.0 1335.5,1536.4 1361.3,1542.3 1386.9,1548.6 1412.5,1555.4 1437.9,1562.7 1463.2,1570.4 1488.4,1578.6 1513.5,1587.2 1538.3,1596.3 1563.0,1605.8 1587.5,1615.7 1611.8,1626.0 1635.8,1636.8 1659.7,1647.9 1683.2,1659.4 1706.6,1671.3 1729.6,1683.6 1752.4,1696.1 1774.9,1709.0 1797.1,1722.2 1819.0,1735.6 1840.5,1749.3 1861.8,1763.2 1882.7,1777.3 1903.3,1791.6 1923.5,1806.0  Z" style="stroke-width: 0.5;  stroke: rgb(0,0,0); fill: rgb(179,177,178);" />
<path d="M 1496.939,2022.491 A 522.500,522.500 0.00 0,1 1479.9,2022.1 L 1479.9,2022.1 1480.5,2001.8 1480.9,1981.6 1480.9,1961.6 1480.6,1941.9 1479.9,1922.8 1478.8,1904.2 1477.3,1886.3 1475.3,1869.3 1472.9,1853.1 1470.1,1837.9 1466.8,1823.7 1462.9,1810.7 1458.7,1798.8 1453.9,1788.2 1448.6,1778.8 1442.8,1770.8 1436.6,1764.2 1429.9,1758.9 1422.7,1755.1 1415.0,1752.6 1406.9,1751.6 1398.4,1752.0 1389.5,1753.8 1380.1,1757.0 1370.4,1761.5 1360.4,1767.4 1350.0,1774.5 1339.3,1783.0 1328.4,1792.6 1317.2,1803.3 1305.9,1815.1 1294.4,1827.9 1282.8,1841.5 1271.1,1856.0 1259.5,1871.2 1247.8,1887.0 1236.2,1903.3 1224.8,1920.0 1213.5,1937.0  A 522.500,522.500 0.00 0,1 1199.2,1927.2 L 1199.2,1927.2 1211.1,1910.7 1223.2,1894.3 1235.4,1878.4 1247.7,1862.9 1260.1,1848.1 1272.5,1834.0 1284.8,1820.7 1297.1,1808.3 1309.2,1796.9 1321.1,1786.6 1332.8,1777.3 1344.3,1769.3 1355.5,1762.5 1366.4,1757.0 1377.0,1752.8 1387.2,1749.9 1397.0,1748.5 1406.4,1748.4 1415.4,1749.7 1423.9,1752.5 1432.0,1756.6 1439.7,1762.1 1446.8,1769.0 1453.4,1777.2 1459.6,1786.8 1465.3,1797.6 1470.5,1809.7 1475.1,1822.9 1479.3,1837.2 1483.1,1852.5 1486.3,1868.9 1489.1,1886.1 1491.4,1904.0 1493.3,1922.7 1494.8,1942.0 1495.8,1961.7 1496.6,1981.8 1496.9,2002.1 1496.9,2022.5  Z" style="stroke-width: 0.5;  stroke: rgb(0,0,0); fill: rgb(179,177,178);" />
<path d="M 1725.322,1971.419 A 522.500,522.500 0.00 0,1 1711.5,1977.8 L 1711.5,1977.8 1702.4,1957.9 1692.8,1938.1 1682.6,1918.6 1671.8,1899.4 1660.5,1880.5 1648.7,1862.2 1636.3,1844.4 1623.3,1827.2 1609.8,1810.8 1595.8,1795.0 1581.3,1780.1 1566.2,1766.1 1550.7,1752.9 1534.7,1740.7 1518.2,1729.5 1501.3,1719.3 1483.9,1710.1 1466.1,1702.0 1448.0,1695.0 1429.4,1689.1 1410.6,1684.3 1391.4,1680.6 1371.9,1678.0 1352.2,1676.5 1332.3,1676.1 1312.2,1676.8 1291.9,1678.5 1271.5,1681.2 1251.0,1685.0 1230.4,1689.7 1209.9,1695.3 1189.4,1701.8 1169.0,1709.1 1148.7,1717.2 1128.6,1726.0 1108.7,1735.4 1089.0,1745.4 1069.7,1755.9 1050.8,1766.9  A 522.500,522.500 0.00 0,1 1043.3,1753.8 L 1043.3,1753.8 1062.7,1743.4 1082.4,1733.3 1102.5,1723.8 1122.8,1714.9 1143.3,1706.6 1164.1,1699.0 1184.9,1692.1 1205.9,1686.1 1226.9,1680.9 1247.9,1676.7 1268.8,1673.3 1289.7,1671.0 1310.5,1669.6 1331.1,1669.3 1351.6,1670.0 1371.8,1671.8 1391.8,1674.6 1411.5,1678.6 1430.9,1683.6 1450.0,1689.7 1468.7,1696.8 1487.1,1705.0 1505.0,1714.3 1522.5,1724.5 1539.6,1735.8 1556.3,1748.0 1572.4,1761.1 1588.1,1775.2 1603.2,1790.0 1617.9,1805.7 1632.0,1822.0 1645.6,1839.1 1658.6,1856.7 1671.1,1875.0 1683.1,1893.6 1694.5,1912.7 1705.3,1932.1 1715.6,1951.7 1725.3,1971.4  Z" style="stroke-width: 0.5;  stroke: rgb(0,0,0); fill: rgb(179,177,178);" />
<path d="M 1838.985,1897.612 A 522.500,522.500 0.00 0,1 1828.3,1906.5 L 1828.3,1906.5 1813.6,1888.6 1798.3,1870.8 1782.4,1853.3 1766.1,1836.1 1749.3,1819.2 1732.0,1802.7 1714.1,1786.6 1695.9,1771.1 1677.1,1756.0 1657.9,1741.6 1638.3,1727.7 1618.3,1714.5 1597.8,1701.9 1577.0,1690.1 1555.8,1679.0 1534.2,1668.6 1512.3,1659.0 1490.1,1650.2 1467.6,1642.2 1444.8,1635.1 1421.8,1628.7 1398.6,1623.1 1375.2,1618.4 1351.6,1614.5 1327.8,1611.4 1304.0,1609.1 1280.0,1607.6 1256.0,1606.9 1232.0,1607.0 1208.0,1607.8 1184.0,1609.4 1160.1,1611.6 1136.3,1614.5 1112.6,1618.1 1089.1,1622.2 1065.9,1627.0 1042.9,1632.2 1020.1,1638.0 997.8,1644.1  A 522.500,522.500 0.00 0,1 994.2,1630.9 L 994.2,1630.9 1016.8,1625.3 1039.8,1620.1 1063.1,1615.4 1086.7,1611.2 1110.4,1607.5 1134.3,1604.5 1158.4,1602.0 1182.6,1600.2 1206.8,1599.1 1231.1,1598.7 1255.4,1599.0 1279.7,1600.1 1303.9,1601.9 1328.0,1604.4 1352.0,1607.8 1375.9,1611.9 1399.7,1616.9 1423.2,1622.6 1446.6,1629.1 1469.6,1636.4 1492.5,1644.4 1515.0,1653.3 1537.3,1662.9 1559.2,1673.2 1580.8,1684.3 1602.1,1696.0 1622.9,1708.4 1643.4,1721.5 1663.5,1735.2 1683.1,1749.5 1702.3,1764.3 1721.1,1779.7 1739.4,1795.5 1757.2,1811.7 1774.6,1828.3 1791.4,1845.3 1807.8,1862.5 1823.6,1880.0 1839.0,1897.6  Z" style="stroke-width: 0.5;  stroke: rgb(0,0,0); fill: rgb(179,177,178);" />
</g>
<g id="plot0">
<g id="plot0-axis">
</g>
<line x1='2245.0' y1='1586.3' x2='2245.0' y2='1586.3' style="stroke-width:14.0;stroke:rgb(0,0,0);stroke-linecap:round;fill:none;" />
<line x1='2245.0' y1='1586.3' x2='2284.8' y2='1590.9' style="stroke-width:14.0;stroke:rgb(0,0,0);stroke-linecap:round;fill:none;" />
<line x1='2284.8' y1='1590.9' x2='2284.8' y2='1590.9' style="stroke-width:14.0;stroke:rgb(0,0,0);stroke-linecap:round;fill:none;" />
<text x="2301.8" y="1615.0" font-size="46.8px" font-family="CMUBright-Roman" style="text-anchor:start;fill:rgb(255,38,78);" transform="rotate(6.6,2301.8,1615.0)" >scaffold<tspan baseline-shift="-40%" font-size="90%">s</tspan>00008</text>
</g>
<defs>
<pattern id="vline" width="10" height="10" patternTransform="rotate(0 0 0)" patternUnits="userSpaceOnUse"><line x1="0" y1="0" x2="0" y2="10" style="stroke:black;stroke-width:5" /></pattern>
<pattern id="hline" width="10" height="10" patternTransform="rotate(0 0 0)" patternUnits="userSpaceOnUse"><line x1="0" y1="0" x2="10" y2="0" style="stroke:black;stroke-width:5" /></pattern>
<pattern id="checker" width="10" height="10" patternTransform="rotate(45 0 0)" patternUnits="userSpaceOnUse"><line x1="0" y1="0" x2="10" y2="0" style="stroke:black;stroke-width:2" /><line x1="0" y1="0" x2="0" y2="10" style="stroke:black;stroke-width:2" /></pattern>
<pattern id="vline-sparse" width="10" height="10" patternTransform="rotate(0 0 0)" patternUnits="userSpaceOnUse"><line x1="0" y1="0" x2="0" y2="10" style="stroke:black;stroke-width:2" /></pattern>
<pattern id="hline-sparse" width="10" height="10" patternTransform="rotate(0 0 0)" patternUnits="userSpaceOnUse"><line x1="0" y1="0" x2="10" y2="0" style="stroke:black;stroke-width:2" /></pattern>
<pattern id="checker" width="10" height="10" patternTransform="rotate(45 0 0)" patternUnits="userSpaceOnUse"><line x1="0" y1="0" x2="10" y2="0" style="stroke:black;stroke-width:5" /><line x1="0" y1="0" x2="0" y2="10" style="stroke:black;stroke-width:4" /></pattern>
</defs>
</svg>
